<?xml version="1.0" encoding="UTF-8"?>
<svg version="1.1" xmlns="http://www.w3.org/2000/svg" width="512" height="512">
<path d="M0 0 C6.04107907 3.54409972 9.84504558 8.75259117 12.9375 14.9375 C13.77225649 19.57503605 13.5 24.35043474 13.5 29.0625 C25.71 29.0625 37.92 29.0625 50.5 29.0625 C50.5 25.7625 50.5 22.4625 50.5 19.0625 C52.65130638 10.30851393 56.98192467 4.69726354 64.59765625 0.078125 C71.13822155 -3.41375791 80.49418467 -3.1006469 87.5 -1.06640625 C94.49248619 2.18467346 98.52541559 6.70570651 102.375 13.25 C103.5 17.0625 103.5 17.0625 103.5 29.0625 C115.71 29.0625 127.92 29.0625 140.5 29.0625 C140.5 26.0925 140.5 23.1225 140.5 20.0625 C142.08016052 12.42669326 145.29462531 6.78063613 151.5 2.0625 C152.06203125 1.629375 152.6240625 1.19625 153.203125 0.75 C159.60502487 -3.25814601 167.24340431 -2.80430266 174.5 -1.9375 C181.84259785 0.17568797 187.44408973 4.60684282 191.5 11.0625 C194.30225751 17.35757134 194.5 22.00446157 194.5 29.0625 C206.38 29.0625 218.26 29.0625 230.5 29.0625 C230.83 25.1025 231.16 21.1425 231.5 17.0625 C234.90711504 8.44450314 238.7619804 4.02376225 246.5 -0.8125 C252.97385332 -3.2640499 261.39360349 -3.01374745 268.00390625 -1.28125 C275.03806154 1.9123391 280.69934364 7.90526709 283.5 15.0625 C284.86217768 19.64437036 284.5928811 24.32556383 284.5 29.0625 C285.325 29.18625 286.15 29.31 287 29.4375 C301.74594074 32.0707037 314.09807611 38.13951499 324.5 49.0625 C325.46486328 50.03316406 325.46486328 50.03316406 326.44921875 51.0234375 C336.25822398 61.44949512 342.61121416 76.08111073 342.63422108 90.4170599 C342.63867892 91.70723772 342.64313676 92.99741554 342.64772969 94.32668966 C342.6476404 95.75652501 342.64745057 97.18636035 342.64717102 98.61619568 C342.65047142 100.13671035 342.65419736 101.65722414 342.6583125 103.17773682 C342.66832082 107.35799512 342.67204742 111.53823906 342.67470181 115.71850765 C342.67860838 120.22657497 342.68818655 124.73463096 342.69691467 129.24269104 C342.71667016 140.13138701 342.7267446 151.02008389 342.73564246 161.9087933 C342.74002728 167.03889263 342.74539363 172.16899092 342.75063133 177.29908943 C342.76764347 194.3573291 342.78213673 211.41556812 342.78938007 228.47381496 C342.79128991 232.89977965 342.79321025 237.32574432 342.79516602 241.75170898 C342.79564976 242.8517366 342.7961335 243.95176421 342.7966319 245.08512599 C342.80492875 262.89712931 342.83025993 280.70906539 342.86274669 298.52103936 C342.89584205 316.81616737 342.91383112 335.11126124 342.91702431 353.40641934 C342.91918722 363.67519332 342.92790372 373.94386929 342.95348549 384.21261406 C342.9752264 392.95973181 342.98322627 401.70672774 342.97351871 410.45386945 C342.9689837 414.91334565 342.97081348 419.37257067 342.99028015 423.83201218 C343.00798227 427.92273942 343.00685752 432.01303356 342.99138286 436.10376585 C342.98901741 437.57559726 342.99327457 439.04745922 343.00521151 440.51924413 C343.14577888 459.01147084 337.7897774 475.18565885 324.96606445 488.80932617 C311.21216881 502.65582506 294.10187072 509.23056785 274.72517192 509.339311 C273.49287416 509.3362138 272.2605764 509.3331166 270.99093628 509.32992554 C269.64489651 509.33366867 268.29885892 509.33827282 266.95282471 509.34365618 C263.27796811 509.35581994 259.603203 509.35563359 255.9283309 509.35326743 C251.95541596 509.35285757 247.9825297 509.36391454 244.0096283 509.37338257 C236.23446185 509.38995761 228.45932575 509.39549055 220.68414311 509.39660732 C214.35966693 509.39755955 208.03520072 509.40167854 201.71072769 509.40800858 C183.75548294 509.42561218 165.80026204 509.43484894 147.8450086 509.43334763 C146.87811865 509.43326772 145.9112287 509.4331878 144.91503906 509.43310547 C143.94696001 509.43302371 142.97888097 509.43294195 141.98146619 509.43285771 C126.30184321 509.43204527 110.62231641 509.45117465 94.94272123 509.4793822 C78.81930362 509.50815785 62.69593283 509.52191989 46.5724889 509.52019465 C37.52998295 509.51953232 28.48757779 509.52495548 19.44509506 509.54655075 C11.74447478 509.56482436 4.04400099 509.56905949 -3.65663166 509.5555319 C-7.57970209 509.549033 -11.50249202 509.54877241 -15.4255352 509.5662384 C-40.54098062 509.67089979 -61.91953462 508.23294097 -81.73828125 490.875 C-88.54949353 483.93854619 -93.30248834 475.78405846 -97.5 467.0625 C-98.47759277 467.04268066 -99.45518555 467.02286133 -100.46240234 467.00244141 C-104.13418761 466.92562629 -107.80561514 466.83703493 -111.47705078 466.74511719 C-113.05770743 466.70713765 -114.63844142 466.67223435 -116.21923828 466.640625 C-131.65227437 466.32825488 -146.14238235 465.47171802 -157.9375 454.1875 C-167.61948018 443.60160051 -170.3419192 432.75510152 -169.890625 418.6875 C-169.4779349 412.33920535 -167.5611416 407.61201243 -164.5 402.0625 C-163.59158538 400.36504465 -162.68412534 398.66707828 -161.77734375 396.96875 C-159.71748469 393.13851304 -157.62600801 389.32778195 -155.51171875 385.52734375 C-153.64749055 382.16985762 -151.82815296 378.79928976 -150.08203125 375.37890625 C-149.72536377 374.68450439 -149.36869629 373.99010254 -149.0012207 373.2746582 C-148.06615958 371.44215729 -147.14203152 369.60408907 -146.21875 367.765625 C-144.43072196 364.95354454 -143.65627695 363.98111792 -140.5 363.0625 C-137.75 362.9375 -137.75 362.9375 -135.5 363.0625 C-135.20996094 362.06669922 -135.20996094 362.06669922 -134.9140625 361.05078125 C-132.32776801 352.28042619 -132.32776801 352.28042619 -130.5 348.0625 C-131.49 347.7325 -132.48 347.4025 -133.5 347.0625 C-135.89437029 342.27375942 -134.62777871 336.94065854 -133.06640625 332.078125 C-132.40514006 330.15393353 -131.73666277 328.232211 -131.0625 326.3125 C-117.57178307 285.84034922 -110.29611356 243.36860269 -105.5 201.0625 C-105.37818359 200.00993011 -105.37818359 200.00993011 -105.25390625 198.93609619 C-103.13745344 180.47730987 -102.42369719 162.04836841 -102.23828125 143.48046875 C-102.22959644 142.65210762 -102.22091164 141.82374649 -102.21196365 140.97028351 C-102.12482158 132.51835859 -102.05702132 124.0670856 -102.0563097 115.61467648 C-102.05290506 112.39581114 -102.0342509 109.17713021 -102.01311302 105.95833778 C-102.00710149 104.45774784 -102.00805212 102.95710932 -102.01690102 101.45653343 C-102.13684827 80.44005705 -96.31653724 62.26233555 -81.41015625 46.91015625 C-69.67651398 35.85549509 -55.57639808 29.69542906 -39.5 29.0625 C-39.53480469 28.36125 -39.56960937 27.66 -39.60546875 26.9375 C-39.86026433 18.00752164 -38.59182108 11.32447315 -32.3359375 4.671875 C-23.38519381 -3.17430883 -10.95275735 -4.79183134 0 0 Z " fill="#EEECED" transform="translate(169.5,2.9375)"/>
<path d="M0 0 C6.04107907 3.54409972 9.84504558 8.75259117 12.9375 14.9375 C13.77225649 19.57503605 13.5 24.35043474 13.5 29.0625 C25.71 29.0625 37.92 29.0625 50.5 29.0625 C50.5 25.7625 50.5 22.4625 50.5 19.0625 C52.65130638 10.30851393 56.98192467 4.69726354 64.59765625 0.078125 C71.13822155 -3.41375791 80.49418467 -3.1006469 87.5 -1.06640625 C94.49248619 2.18467346 98.52541559 6.70570651 102.375 13.25 C103.5 17.0625 103.5 17.0625 103.5 29.0625 C115.71 29.0625 127.92 29.0625 140.5 29.0625 C140.5 26.0925 140.5 23.1225 140.5 20.0625 C142.08016052 12.42669326 145.29462531 6.78063613 151.5 2.0625 C152.06203125 1.629375 152.6240625 1.19625 153.203125 0.75 C159.60502487 -3.25814601 167.24340431 -2.80430266 174.5 -1.9375 C181.84259785 0.17568797 187.44408973 4.60684282 191.5 11.0625 C194.30225751 17.35757134 194.5 22.00446157 194.5 29.0625 C206.38 29.0625 218.26 29.0625 230.5 29.0625 C230.83 25.1025 231.16 21.1425 231.5 17.0625 C234.90711504 8.44450314 238.7619804 4.02376225 246.5 -0.8125 C252.97385332 -3.2640499 261.39360349 -3.01374745 268.00390625 -1.28125 C275.03806154 1.9123391 280.69934364 7.90526709 283.5 15.0625 C284.86217768 19.64437036 284.5928811 24.32556383 284.5 29.0625 C285.325 29.18625 286.15 29.31 287 29.4375 C301.74594074 32.0707037 314.09807611 38.13951499 324.5 49.0625 C325.46486328 50.03316406 325.46486328 50.03316406 326.44921875 51.0234375 C336.25822398 61.44949512 342.61121416 76.08111073 342.63422108 90.4170599 C342.63867892 91.70723772 342.64313676 92.99741554 342.64772969 94.32668966 C342.6476404 95.75652501 342.64745057 97.18636035 342.64717102 98.61619568 C342.65047142 100.13671035 342.65419736 101.65722414 342.6583125 103.17773682 C342.66832082 107.35799512 342.67204742 111.53823906 342.67470181 115.71850765 C342.67860838 120.22657497 342.68818655 124.73463096 342.69691467 129.24269104 C342.71667016 140.13138701 342.7267446 151.02008389 342.73564246 161.9087933 C342.74002728 167.03889263 342.74539363 172.16899092 342.75063133 177.29908943 C342.76764347 194.3573291 342.78213673 211.41556812 342.78938007 228.47381496 C342.79128991 232.89977965 342.79321025 237.32574432 342.79516602 241.75170898 C342.79564976 242.8517366 342.7961335 243.95176421 342.7966319 245.08512599 C342.80492875 262.89712931 342.83025993 280.70906539 342.86274669 298.52103936 C342.89584205 316.81616737 342.91383112 335.11126124 342.91702431 353.40641934 C342.91918722 363.67519332 342.92790372 373.94386929 342.95348549 384.21261406 C342.9752264 392.95973181 342.98322627 401.70672774 342.97351871 410.45386945 C342.9689837 414.91334565 342.97081348 419.37257067 342.99028015 423.83201218 C343.00798227 427.92273942 343.00685752 432.01303356 342.99138286 436.10376585 C342.98901741 437.57559726 342.99327457 439.04745922 343.00521151 440.51924413 C343.14577888 459.01147084 337.7897774 475.18565885 324.96606445 488.80932617 C311.21216881 502.65582506 294.10187072 509.23056785 274.72517192 509.339311 C273.49287416 509.3362138 272.2605764 509.3331166 270.99093628 509.32992554 C269.64489651 509.33366867 268.29885892 509.33827282 266.95282471 509.34365618 C263.27796811 509.35581994 259.603203 509.35563359 255.9283309 509.35326743 C251.95541596 509.35285757 247.9825297 509.36391454 244.0096283 509.37338257 C236.23446185 509.38995761 228.45932575 509.39549055 220.68414311 509.39660732 C214.35966693 509.39755955 208.03520072 509.40167854 201.71072769 509.40800858 C183.75548294 509.42561218 165.80026204 509.43484894 147.8450086 509.43334763 C146.87811865 509.43326772 145.9112287 509.4331878 144.91503906 509.43310547 C143.94696001 509.43302371 142.97888097 509.43294195 141.98146619 509.43285771 C126.30184321 509.43204527 110.62231641 509.45117465 94.94272123 509.4793822 C78.81930362 509.50815785 62.69593283 509.52191989 46.5724889 509.52019465 C37.52998295 509.51953232 28.48757779 509.52495548 19.44509506 509.54655075 C11.74447478 509.56482436 4.04400099 509.56905949 -3.65663166 509.5555319 C-7.57970209 509.549033 -11.50249202 509.54877241 -15.4255352 509.5662384 C-40.54098062 509.67089979 -61.91953462 508.23294097 -81.73828125 490.875 C-88.54949353 483.93854619 -93.30248834 475.78405846 -97.5 467.0625 C-98.47759277 467.04268066 -99.45518555 467.02286133 -100.46240234 467.00244141 C-104.13418761 466.92562629 -107.80561514 466.83703493 -111.47705078 466.74511719 C-113.05770743 466.70713765 -114.63844142 466.67223435 -116.21923828 466.640625 C-131.65227437 466.32825488 -146.14238235 465.47171802 -157.9375 454.1875 C-167.61948018 443.60160051 -170.3419192 432.75510152 -169.890625 418.6875 C-169.4779349 412.33920535 -167.5611416 407.61201243 -164.5 402.0625 C-163.59158538 400.36504465 -162.68412534 398.66707828 -161.77734375 396.96875 C-159.71748469 393.13851304 -157.62600801 389.32778195 -155.51171875 385.52734375 C-153.64749055 382.16985762 -151.82815296 378.79928976 -150.08203125 375.37890625 C-149.72536377 374.68450439 -149.36869629 373.99010254 -149.0012207 373.2746582 C-148.06615958 371.44215729 -147.14203152 369.60408907 -146.21875 367.765625 C-144.46209463 365.00288519 -143.58507272 364.02036532 -140.5 363.0625 C-137.30830587 363.22208471 -135.77522616 363.86165929 -133.1875 365.75 C-130.98543021 368.7676512 -131.22587065 370.37748715 -131.5 374.0625 C-132.36694336 376.61694336 -132.36694336 376.61694336 -133.58984375 379.15234375 C-134.04045166 380.094729 -134.49105957 381.03711426 -134.95532227 382.00805664 C-135.44444092 382.99539795 -135.93355957 383.98273926 -136.4375 385 C-136.93241943 386.01892334 -137.42733887 387.03784668 -137.93725586 388.08764648 C-141.20361354 394.71613873 -144.69019333 401.1482628 -148.68139648 407.36889648 C-153.17423775 414.42365802 -154.42814185 420.81235024 -153.5 429.0625 C-151.40863681 436.29748618 -147.47394026 442.46430924 -140.9375 446.375 C-136.20600103 448.69773586 -132.76830925 449.18803792 -127.50719261 449.19951439 C-126.27227337 449.20458893 -125.03735413 449.20966347 -123.7650131 449.21489179 C-122.39236351 449.21549344 -121.01971387 449.21599253 -119.64706421 449.21640015 C-118.19055839 449.22041567 -116.7340537 449.22485405 -115.27755034 449.2296797 C-111.26973754 449.24164093 -107.26193677 449.2472926 -103.25410962 449.25186086 C-98.93355854 449.25781862 -94.61302184 449.26942799 -90.29248047 449.28015137 C-79.85575003 449.30467073 -69.41901483 449.31930151 -58.98226446 449.33221143 C-56.0344764 449.3359236 -53.08668882 449.33989681 -50.13890123 449.3439641 C-31.83326912 449.3692 -13.52763626 449.39125294 4.77800941 449.40369225 C9.01785917 449.40662194 13.2577089 449.4095836 17.49755859 449.41259766 C18.55135111 449.41334371 19.60514363 449.41408976 20.69086926 449.41485842 C37.76200662 449.42751229 54.83303983 449.4607362 71.90412851 449.50239949 C89.43079646 449.54482402 106.9574111 449.56838785 124.48413026 449.57361281 C134.32469255 449.57702624 144.16509205 449.5887736 154.00560379 449.62171555 C162.38616856 449.64972426 170.76653717 449.66071174 179.14714511 449.64952008 C183.42188104 449.64433562 187.69620623 449.64720623 191.97088242 449.67198563 C195.88820547 449.69450365 199.80482333 449.693719 203.72215895 449.67478175 C205.13540743 449.67198529 206.54870399 449.67756076 207.96187527 449.69259469 C219.71657842 449.80994886 227.88037213 447.16705347 236.5234375 439.109375 C239.99785142 435.51136533 243.12182775 431.67507946 246.19140625 427.72900391 C247.59575774 425.94055181 249.03150124 424.18006881 250.46875 422.41796875 C271.26413175 396.53500246 284.63451587 366.18703894 295.5 335.0625 C295.84047363 334.09473633 296.18094727 333.12697266 296.53173828 332.12988281 C306.23147219 304.40939766 313.11724945 275.33832668 317.17626953 246.24633789 C317.55031719 243.72306769 317.98439576 241.21294589 318.41796875 238.69921875 C319.81636409 230.36899273 320.91502168 222.00078078 322 213.625 C322.11049683 212.77665588 322.22099365 211.92831177 322.33483887 211.05426025 C324.24411038 196.27907866 325.54287626 181.55467688 326.28222656 166.67333984 C326.49924486 164.07155321 326.96852964 161.61591196 327.5 159.0625 C326.65697327 159.07138245 325.81394653 159.08026489 324.94537354 159.0894165 C316.99995807 159.1695705 309.05467842 159.23046841 301.10895157 159.26974869 C297.0239563 159.29062211 292.93929515 159.31893463 288.85449219 159.36425781 C284.91225655 159.4077253 280.97034223 159.43163895 277.02788544 159.44200897 C275.52395316 159.44939882 274.02003843 159.46382967 272.51624298 159.48542023 C270.40920541 159.51446812 268.30349471 159.51845571 266.19628906 159.51660156 C264.99715881 159.52548401 263.79802856 159.53436646 262.56256104 159.54351807 C258.86902261 158.96339617 257.6952844 158.04407557 255.5 155.0625 C254.94819671 151.19987698 254.7615403 149.06545588 257.11273193 145.87213135 C260.2916226 143.46242283 262.23003327 143.57901876 266.19628906 143.60839844 C266.86011597 143.60781433 267.52394287 143.60723022 268.20788574 143.60662842 C270.39433738 143.60940735 272.57941262 143.64048672 274.765625 143.671875 C276.28447729 143.67933816 277.80333922 143.68503074 279.32220459 143.68902588 C283.31403325 143.70427659 287.30527697 143.74355277 291.296875 143.7878418 C295.37231534 143.82880711 299.44785048 143.84703954 303.5234375 143.8671875 C311.51589302 143.91004825 319.50787368 143.97829196 327.5 144.0625 C327.43265107 136.28835245 327.34270951 128.51469406 327.23754883 120.7409668 C327.20443066 118.10007556 327.17635856 115.45911576 327.15356445 112.81811523 C327.11977729 109.00735441 327.06744809 105.19721444 327.01171875 101.38671875 C327.00213387 99.6344825 327.00213387 99.6344825 326.99235535 97.84684753 C326.72636621 82.79210622 322.31810356 70.30594015 311.87890625 59.31640625 C304.1260038 51.97088127 294.06052095 46.8547052 283.5 45.0625 C283.54640625 45.67996094 283.5928125 46.29742187 283.640625 46.93359375 C283.98322573 54.97247517 282.04843796 60.9527674 277.1875 67.375 C271.33205733 73.23044267 265.41371518 75.19121968 257.25 75.375 C249.25665177 75.28558895 244.64185436 73.19542066 238.75 67.9375 C231.90153247 60.58754285 231.5 54.03628409 231.5 44.0625 C218.96 44.0625 206.42 44.0625 193.5 44.0625 C193.5 47.6925 193.5 51.3225 193.5 55.0625 C191.44414221 62.94501002 185.973749 68.42181972 179.5 73.0625 C173.58209978 76.21871345 165.6259038 75.94269281 159.15625 74.5625 C152.01856636 72.14666861 147.27161221 67.52812093 143.5 61.0625 C141.5 56.0625 141.5 56.0625 141.5 44.0625 C128.96 44.0625 116.42 44.0625 103.5 44.0625 C103.5 47.6925 103.5 51.3225 103.5 55.0625 C101.18753795 63.64529182 95.14317116 69.30642774 87.703125 73.72265625 C81.26064629 76.41749796 73.37144152 76.29283099 66.734375 74.18359375 C60.30315745 70.86954797 56.24091198 66.02205037 52.625 59.875 C51.5 56.0625 51.5 56.0625 51.5 44.0625 C38.63 44.0625 25.76 44.0625 12.5 44.0625 C12.5 48.0225 12.5 51.9825 12.5 56.0625 C9.27751309 64.46049618 5.40963164 69.17081018 -2.265625 73.69140625 C-8.7044625 76.42091345 -16.57001918 76.27691467 -23.23046875 74.21875 C-30.59489009 70.4668245 -36.50361443 64.05636855 -39.078125 56.16015625 C-39.82174988 52.4626881 -39.73434084 48.81195346 -39.5 45.0625 C-54.11782167 47.49524696 -66.24299693 52.60684055 -75.47265625 64.6328125 C-82.74444835 75.47102494 -85.09668604 85.29375825 -85.109375 98.26171875 C-85.12591125 99.57791702 -85.14244751 100.8941153 -85.15948486 102.25019836 C-85.20274593 105.71065232 -85.22306426 109.17085487 -85.23822021 112.63153076 C-85.25794226 116.17833068 -85.29989388 119.72486483 -85.33984375 123.27148438 C-85.41469706 130.2017217 -85.46525823 137.1319484 -85.5 144.0625 C-84.48661289 144.06136084 -84.48661289 144.06136084 -83.45275331 144.06019866 C-43.43715271 144.01547032 -3.42155534 143.98114095 36.59406517 143.96036934 C41.39571797 143.95786784 46.19737072 143.95527921 50.99902344 143.95263672 C51.95497092 143.9521121 52.91091841 143.95158748 53.895834 143.95104696 C69.38693699 143.94233755 84.87802518 143.92656464 100.36911938 143.90819441 C116.25711212 143.88951025 132.14509709 143.87838642 148.03310037 143.87432301 C157.84171021 143.87157487 167.65027823 143.86288616 177.45887521 143.84666707 C184.17936404 143.83611849 190.89983116 143.83289454 197.62032768 143.83549725 C201.5012626 143.83678186 205.38212427 143.83477312 209.26304626 143.82408905 C213.46559402 143.81260369 217.66798464 143.81650952 221.87054443 143.82199097 C223.10399652 143.81616528 224.33744861 143.8103396 225.60827804 143.80433738 C226.73092881 143.80831948 227.85357959 143.81230158 229.01025009 143.81640434 C230.46609784 143.81526518 230.46609784 143.81526518 231.95135665 143.81410301 C234.6296433 144.07513535 236.24834296 144.60937967 238.5 146.0625 C240.04586876 149.15423752 239.79359521 151.65679552 239.5 155.0625 C237.46317035 157.73347794 236.26926551 158.91330174 232.93853259 159.55929399 C231.9618919 159.5577751 230.98525121 159.55625622 229.97901535 159.55469131 C228.84939778 159.56265551 227.71978021 159.5706197 226.55593181 159.57882524 C224.69408083 159.56134819 224.69408083 159.56134819 222.7946167 159.54351807 C221.47629514 159.54693577 220.15797358 159.55035347 218.79970288 159.55387473 C215.13725816 159.56283186 211.47528007 159.54680143 207.81289482 159.52676249 C203.86473468 159.50951226 199.91660152 159.51533246 195.96841431 159.51837158 C189.12687682 159.52047049 182.28549176 159.50790487 175.44399261 159.48542023 C165.55232092 159.4529323 155.66072304 159.4424965 145.76900378 159.43746826 C129.72096072 159.42871057 113.67299893 159.40208213 97.625 159.36425781 C82.03450935 159.32755 66.44404076 159.29923222 50.85351562 159.28222656 C49.4123731 159.28065022 49.4123731 159.28065022 47.94211659 159.27904204 C43.12232832 159.27382194 38.3025399 159.2687671 33.48275137 159.26379442 C-6.51155599 159.22231762 -46.50577264 159.15185628 -86.5 159.0625 C-86.49754147 159.87887971 -86.49508293 160.69525942 -86.4925499 161.53637791 C-86.48968161 163.1488209 -86.48968161 163.1488209 -86.48675537 164.7938385 C-86.48429684 165.85771821 -86.4818383 166.92159792 -86.47930527 168.01771641 C-86.50506698 171.80799647 -86.72481817 175.52880622 -87.015625 179.30859375 C-87.07109497 180.03348495 -87.12656494 180.75837616 -87.18371582 181.50523376 C-87.365505 183.83744424 -87.55629186 186.1687506 -87.75 188.5 C-87.8169104 189.31229065 -87.8838208 190.1245813 -87.95275879 190.96148682 C-91.82974899 237.47514869 -99.94885933 284.65701556 -114.5 329.0625 C-114.77231445 329.91312012 -115.04462891 330.76374023 -115.32519531 331.64013672 C-116.09570925 334.03692888 -116.88658815 336.4257158 -117.6875 338.8125 C-117.9131665 339.51028564 -118.13883301 340.20807129 -118.37133789 340.92700195 C-119.70655527 344.76860341 -120.85410413 347.1156624 -124.5 349.0625 C-128.08110811 349.58474493 -129.79889257 349.50530469 -132.875 347.5625 C-135.13097224 344.09177347 -134.95354691 341.04841588 -134.5 337.0625 C-133.57299949 333.40188456 -132.31305706 329.87352153 -131.0625 326.3125 C-117.57178307 285.84034922 -110.29611356 243.36860269 -105.5 201.0625 C-105.37818359 200.00993011 -105.37818359 200.00993011 -105.25390625 198.93609619 C-103.13745344 180.47730987 -102.42369719 162.04836841 -102.23828125 143.48046875 C-102.22959644 142.65210762 -102.22091164 141.82374649 -102.21196365 140.97028351 C-102.12482158 132.51835859 -102.05702132 124.0670856 -102.0563097 115.61467648 C-102.05290506 112.39581114 -102.0342509 109.17713021 -102.01311302 105.95833778 C-102.00710149 104.45774784 -102.00805212 102.95710932 -102.01690102 101.45653343 C-102.13684827 80.44005705 -96.31653724 62.26233555 -81.41015625 46.91015625 C-69.67651398 35.85549509 -55.57639808 29.69542906 -39.5 29.0625 C-39.53480469 28.36125 -39.56960937 27.66 -39.60546875 26.9375 C-39.86026433 18.00752164 -38.59182108 11.32447315 -32.3359375 4.671875 C-23.38519381 -3.17430883 -10.95275735 -4.79183134 0 0 Z " fill="#020101" transform="translate(169.5,2.9375)"/>
<path d="M0 0 C2.1302826 1.64402244 4.23960997 3.30731009 6.328125 5.00390625 C7.60816406 4.14925781 7.60816406 4.14925781 8.9140625 3.27734375 C10.05199043 2.51939175 11.19001552 1.76158562 12.328125 1.00390625 C13.92527344 -0.05957031 13.92527344 -0.05957031 15.5546875 -1.14453125 C38.05247972 -15.96955175 61.9440218 -23.62293628 89.015625 -18.93359375 C109.50302214 -14.19216169 128.37021785 -2.36171022 139.703125 15.56640625 C150.40262335 34.01604424 153.59603321 54.8518752 149.20703125 75.9375 C138.20615992 114.31831775 111.27992068 147.3956455 79.17138672 170.65673828 C77.08749598 172.1797726 75.0384605 173.74440079 72.98828125 175.3125 C55.78240187 188.37214512 37.30667499 199.38361721 18.42626953 209.84082031 C16.66148 210.81911416 14.91270333 211.8262155 13.16796875 212.83984375 C8.18920701 214.88065668 4.67525822 214.55740229 -0.265625 212.52734375 C-1.57693093 211.82822814 -2.87857584 211.11079636 -4.171875 210.37890625 C-4.89109131 209.98429199 -5.61030762 209.58967773 -6.35131836 209.18310547 C-22.30281446 200.31051653 -37.86908064 190.68759573 -52.671875 180.00390625 C-53.32704102 179.53275391 -53.98220703 179.06160156 -54.65722656 178.57617188 C-91.20279649 152.14195471 -128.27963128 116.27459518 -136.27709961 69.8972168 C-139.0945249 49.24829464 -135.71354038 29.43385847 -123.6875 12.15234375 C-121.76270537 9.68293669 -119.76454365 7.33189507 -117.671875 5.00390625 C-117.15367188 4.39289063 -116.63546875 3.781875 -116.1015625 3.15234375 C-85.64326882 -30.36708497 -33.37557664 -24.93409307 0 0 Z " fill="#FC6E70" transform="translate(241.671875,213.99609375)"/>
<path d="M0 0 C12.87 0 25.74 0 39 0 C39.33 3.96 39.66 7.92 40 12 C43.7179981 21.241881 47.71826545 26.01418337 57 30 C64.85025982 31.03633793 72.40411045 31.05186589 79.13671875 26.55078125 C84.38208239 22.18514317 87.91597127 17.58114334 90 11 C90.33 7.37 90.66 3.74 91 0 C103.54 0 116.08 0 129 0 C129.33 3.96 129.66 7.92 130 12 C133.12421786 19.92212387 137.63588088 24.61286521 145 29 C151.55494799 31.11495117 159.41002314 30.99718599 165.8125 28.5 C171.85263489 25.39771656 175.58473527 20.50030102 178.875 14.6875 C180.47901132 9.87913705 180.47901132 9.87913705 181 0 C193.54 0 206.08 0 219 0 C219.66 4.29 220.32 8.58 221 13 C223.72879727 20.34676187 228.25167642 25.63369967 235.359375 29.17578125 C243.17775826 31.61613461 251.79017374 30.66815722 259 27 C265.3768873 22.70786432 268.19041897 18.01110603 269.6875 10.59375 C270.18738791 7.4000217 270.62800334 4.21091852 271 1 C284.59085343 2.18181334 296.32245057 9.71142874 305 20 C309.52659056 26.24710461 312.17961525 32.53511288 314 40 C314.17385727 40.59053162 314.34771454 41.18106323 314.52684021 41.78948975 C315.09470363 44.4424369 315.11963785 46.88079637 315.11352539 49.59472656 C315.11344986 50.71558655 315.11337433 51.83644653 315.11329651 52.99127197 C315.10813522 54.19555847 315.10297394 55.39984497 315.09765625 56.640625 C315.09553383 58.49660309 315.09553383 58.49660309 315.09336853 60.39007568 C315.0887211 63.67144941 315.07974347 66.95277373 315.06866455 70.23413086 C315.0584152 73.58577011 315.05394859 76.93741148 315.04882812 80.2890625 C315.03780025 86.85939431 315.02106296 93.42969311 315 100 C314.15475266 100.00586624 313.30950531 100.01173248 312.43864441 100.01777649 C304.47795735 100.07564942 296.51755248 100.14769474 288.5571394 100.23571491 C284.46446382 100.28046719 280.3718889 100.31971232 276.27905273 100.34643555 C272.33016285 100.37242049 268.38165934 100.412788 264.43300819 100.46318626 C262.92555861 100.47988771 261.41804214 100.49138156 259.91051292 100.49761391 C257.80084989 100.5072199 255.69218261 100.53523419 253.58276367 100.56762695 C252.38141281 100.57873001 251.18006195 100.58983307 249.94230652 100.60127258 C247.03606578 100.76905598 247.03606578 100.76905598 245.15107727 102.27702332 C243.70202186 104.2363604 243.70202186 104.2363604 243 108 C238.05 108 233.1 108 228 108 C227.67 108.66 227.34 109.32 227 110 C226.67 107.36 226.34 104.72 226 102 C222.77559023 101.04383532 219.86741645 100.87052892 216.51025009 100.8613348 C214.82627392 100.85312313 214.82627392 100.85312313 213.10827804 100.84474558 C211.87482595 100.84376747 210.64137386 100.84278936 209.37054443 100.84178162 C207.40531275 100.83437465 207.40531275 100.83437465 205.40037942 100.82681805 C201.76091634 100.81323361 198.1214626 100.8058177 194.4819808 100.79939139 C190.55834959 100.7913888 186.63473783 100.77769053 182.71112061 100.76467896 C175.91221475 100.74291422 169.11330693 100.72476971 162.31438446 100.70907402 C152.48424643 100.68637538 142.65412993 100.65823254 132.82401016 100.62875474 C116.87584701 100.58107877 100.92767506 100.53781459 84.97949219 100.49731445 C69.48599563 100.45795956 53.99250691 100.41653334 38.49902344 100.37231445 C37.54423575 100.36959018 36.58944806 100.36686591 35.6057274 100.36405908 C30.81590704 100.35037961 26.0260868 100.33665933 21.23626661 100.32291877 C-18.50913931 100.20895391 -58.25456204 100.10214456 -98 100 C-98.11671627 92.40169153 -98.20512657 84.80347793 -98.25906086 77.20447254 C-98.28496918 73.67448191 -98.32001343 70.14511202 -98.37719727 66.61547852 C-98.44276986 62.54177475 -98.46633485 58.46870555 -98.48828125 54.39453125 C-98.52699089 52.52653618 -98.52699089 52.52653618 -98.56648254 50.62080383 C-98.57109566 35.95940497 -92.89889955 24.7384789 -83.19921875 14.0078125 C-74.79316778 5.90776339 -63.68928697 0.83301019 -52 1 C-51.85304688 2.16015625 -51.85304688 2.16015625 -51.703125 3.34375 C-50.34056006 12.8347196 -48.49812251 19.45534418 -40.9765625 25.67578125 C-33.52561385 30.66762234 -26.80147314 31.12862737 -18 30 C-10.63872322 27.17958744 -6.07735526 22.7700151 -2.3125 15.9375 C-0.42279881 10.7854155 -0.42279881 10.7854155 0 0 Z " fill="#FC6E70" transform="translate(182,47)"/>
<path d="M0 0 C0.33 0 0.66 0 1 0 C1.09361092 22.33183824 1.16406118 44.66364393 1.20724869 66.99563885 C1.22783804 77.36573042 1.25588906 87.73569978 1.30175781 98.10571289 C1.34173687 107.14852557 1.36745915 116.19124971 1.37635398 125.23414832 C1.38155003 130.01841532 1.39368644 134.80242909 1.42292023 139.58661461 C1.45026457 144.09855329 1.45840695 148.61013674 1.45243073 153.12215042 C1.45352252 154.76958083 1.46136241 156.41702432 1.4768219 158.06438255 C1.62246342 174.39835393 -1.81365501 189.4985458 -13.25 201.8125 C-25.41458138 212.89578526 -38.87874731 216.62410189 -55.05532837 216.50793457 C-56.4240241 216.51255547 -57.79271485 216.5189163 -59.16139543 216.52684355 C-62.88484613 216.54339679 -66.60788182 216.5353553 -70.33133316 216.52289867 C-74.36137318 216.51379263 -78.39134525 216.52784513 -82.42137146 216.53881836 C-90.30077346 216.55654832 -98.18002253 216.55278862 -106.05943038 216.5411678 C-112.46540785 216.5321132 -118.87134263 216.53091821 -125.27732468 216.53526306 C-126.64788555 216.53618246 -126.64788555 216.53618246 -128.04613452 216.53712043 C-129.90261855 216.5383994 -131.75910256 216.53969626 -133.61558656 216.5410108 C-150.99828322 216.55240008 -168.38089531 216.5393282 -185.7635781 216.51780933 C-200.6643678 216.49993384 -215.56503285 216.50304938 -230.46582031 216.52148438 C-247.79184531 216.54290996 -265.11779636 216.5513079 -282.44383276 216.53903532 C-284.29265744 216.53776119 -286.14148214 216.5365037 -287.99030685 216.53526306 C-288.89984468 216.53464596 -289.8093825 216.53402886 -290.74648208 216.53339306 C-297.14249529 216.52994567 -303.5384614 216.53575517 -309.93446732 216.54518127 C-317.73215709 216.55642114 -325.52968588 216.55331927 -333.32735731 216.5320583 C-337.30247352 216.52157548 -341.2773217 216.51737856 -345.25243568 216.53065491 C-348.89677901 216.54264214 -352.54060782 216.53591338 -356.18490498 216.5147447 C-358.11574134 216.50821492 -360.04661389 216.52115778 -361.97741187 216.53497362 C-376.32611545 216.40670842 -388.13330774 210.98677459 -398.375 201 C-407 191.99528302 -407 191.99528302 -407 188 C-406.36553381 187.99940291 -405.73106761 187.99880582 -405.07737517 187.99819064 C-367.44944332 187.96227402 -329.8215957 187.90560023 -292.19373833 187.82207905 C-287.672779 187.81206194 -283.15181931 187.80221775 -278.63085938 187.79248047 C-277.28083247 187.78956841 -277.28083247 187.78956841 -275.9035323 187.78659752 C-261.34255865 187.75560103 -246.78160075 187.73860344 -232.22060034 187.72680578 C-217.2726935 187.71438203 -202.32486915 187.68685302 -187.3770144 187.64538693 C-178.15803369 187.62028654 -168.93918982 187.60688019 -159.72017446 187.60857043 C-153.39296506 187.60860025 -147.06589475 187.59391917 -140.73873958 187.56783572 C-137.09168607 187.55323014 -133.44491776 187.54495185 -129.79784012 187.55419731 C-125.83442446 187.56407416 -121.87150511 187.54289068 -117.90814209 187.51898193 C-116.19797366 187.53062256 -116.19797366 187.53062256 -114.45325637 187.54249835 C-99.73473608 187.38588992 -88.88516417 181.73859953 -78.375 171.6875 C-34.89731211 125.8401751 -11.63907414 61.0369102 0 0 Z " fill="#D0D0D0" transform="translate(496,280)"/>
<path d="M0 0 C2.1302826 1.64402244 4.23960997 3.30731009 6.328125 5.00390625 C7.60816406 4.14925781 7.60816406 4.14925781 8.9140625 3.27734375 C10.05199043 2.51939175 11.19001552 1.76158562 12.328125 1.00390625 C13.92527344 -0.05957031 13.92527344 -0.05957031 15.5546875 -1.14453125 C38.05247972 -15.96955175 61.9440218 -23.62293628 89.015625 -18.93359375 C109.50302214 -14.19216169 128.37021785 -2.36171022 139.703125 15.56640625 C150.40262335 34.01604424 153.59603321 54.8518752 149.20703125 75.9375 C138.20615992 114.31831775 111.27992068 147.3956455 79.17138672 170.65673828 C77.08749598 172.1797726 75.0384605 173.74440079 72.98828125 175.3125 C55.78240187 188.37214512 37.30667499 199.38361721 18.42626953 209.84082031 C16.66148 210.81911416 14.91270333 211.8262155 13.16796875 212.83984375 C8.18920701 214.88065668 4.67525822 214.55740229 -0.265625 212.52734375 C-1.57693093 211.82822814 -2.87857584 211.11079636 -4.171875 210.37890625 C-4.89109131 209.98429199 -5.61030762 209.58967773 -6.35131836 209.18310547 C-22.30281446 200.31051653 -37.86908064 190.68759573 -52.671875 180.00390625 C-53.32704102 179.53275391 -53.98220703 179.06160156 -54.65722656 178.57617188 C-91.20279649 152.14195471 -128.27963128 116.27459518 -136.27709961 69.8972168 C-139.0945249 49.24829464 -135.71354038 29.43385847 -123.6875 12.15234375 C-121.76270537 9.68293669 -119.76454365 7.33189507 -117.671875 5.00390625 C-117.15367188 4.39289063 -116.63546875 3.781875 -116.1015625 3.15234375 C-85.64326882 -30.36708497 -33.37557664 -24.93409307 0 0 Z M-110.0078125 18.59765625 C-121.25216918 34.85710159 -123.66574564 52.56735332 -120.671875 71.81640625 C-114.19077693 105.34244112 -86.44881517 134.55193925 -60.671875 155.00390625 C-59.6921875 155.81214844 -58.7125 156.62039063 -57.703125 157.453125 C-27.31210172 183.84336541 -27.31210172 183.84336541 7.51953125 197.921875 C11.71427934 196.55085163 15.42184049 194.46586883 19.265625 192.31640625 C20.13807861 191.83091309 21.01053223 191.34541992 21.90942383 190.84521484 C37.93770951 181.81033903 53.20366994 171.85489137 67.59326172 160.38476562 C69.11051663 159.177111 70.64201661 157.98739752 72.17578125 156.80078125 C78.89400649 151.56248201 85.14805221 145.85639304 91.328125 140.00390625 C92.11558105 139.26744873 92.11558105 139.26744873 92.91894531 138.51611328 C109.85427963 122.59607442 123.22827116 103.87988945 131.328125 82.00390625 C131.78832031 80.77027344 131.78832031 80.77027344 132.2578125 79.51171875 C136.94691435 66.24825923 137.99964244 47.75080575 132.58203125 34.59375 C132.16824219 33.73910156 131.75445312 32.88445312 131.328125 32.00390625 C130.69197266 30.61365234 130.69197266 30.61365234 130.04296875 29.1953125 C122.92887609 14.90767794 111.06267671 4.8193169 96.328125 -0.99609375 C76.35064655 -7.35907828 56.76541206 -6.50871681 37.953125 2.81640625 C28.27549224 7.83104244 20.02815132 14.06400113 11.87109375 21.28125 C9.328125 23.00390625 9.328125 23.00390625 6.87890625 23.5703125 C3.19345846 22.7519512 1.00849031 20.50874466 -1.671875 18.00390625 C-18.39796995 3.16550818 -39.81558389 -6.33061568 -62.43359375 -5.37890625 C-80.89903485 -4.02808723 -98.06003111 4.32826805 -110.0078125 18.59765625 Z " fill="#040303" transform="translate(241.671875,213.99609375)"/>
<path d="M0 0 C0.33 0 0.66 0 1 0 C1.09304886 11.64033803 1.16394118 23.28058627 1.20724869 34.92122173 C1.22804356 40.32757985 1.25621196 45.73368183 1.30175781 51.13989258 C1.34550601 56.36596475 1.36919788 61.59179193 1.37950897 66.81803322 C1.38684865 68.80295475 1.40118005 70.78786424 1.42292023 72.77268028 C1.60879764 90.46065921 -0.6605039 106.25690348 -13.25 119.8125 C-25.42007585 130.90079133 -38.88511466 134.62617091 -55.06878662 134.50120544 C-56.43890687 134.50510832 -57.80902305 134.51075661 -59.17912984 134.51797634 C-62.90645104 134.53260692 -66.63334443 134.52262474 -70.36065125 134.50823963 C-74.39473595 134.49706279 -78.42876388 134.50909429 -82.46284485 134.51808167 C-90.34960402 134.53196921 -98.23620238 134.52449197 -106.1229538 134.50940608 C-115.31484806 134.49249644 -124.50670282 134.49576234 -133.69860783 134.49950016 C-150.10069934 134.50537018 -166.50271392 134.49123913 -182.90478516 134.46655273 C-198.80878582 134.4426188 -214.71268378 134.43555568 -230.61669922 134.44604492 C-247.95515206 134.45745981 -265.29355748 134.45937834 -282.63200974 134.44494683 C-284.48136027 134.44342105 -286.3307108 134.44190069 -288.18006134 134.44038582 C-289.54479021 134.4392491 -289.54479021 134.4392491 -290.93708937 134.43808941 C-297.34004257 134.43335223 -303.74297455 134.43519389 -310.14592743 134.43945122 C-317.94877803 134.44438278 -325.75153164 134.4383712 -333.55436006 134.41855692 C-337.53323549 134.40870107 -341.51196339 134.40356141 -345.49084663 134.41144943 C-349.13624407 134.41852842 -352.78134438 134.41165022 -356.42670277 134.3938458 C-358.36298842 134.38791339 -360.29930203 134.39660361 -362.23557448 134.40589231 C-368.80242502 134.35823256 -375.07086489 134.12533899 -381 131 C-381.33 130.34 -381.66 129.68 -382 129 C-381.41881277 128.99902319 -380.83762554 128.99804638 -380.23882657 128.99703997 C-345.75895553 128.93871171 -311.2791532 128.86487249 -276.79936041 128.77101372 C-272.6552217 128.75974615 -268.51108264 128.74860761 -264.36694336 128.73754883 C-263.5419531 128.73534514 -262.71696285 128.73314146 -261.86697289 128.730871 C-248.52562114 128.69554142 -235.18426945 128.67065282 -221.84288833 128.64965298 C-208.14364791 128.62785631 -194.44446796 128.59476929 -180.74527901 128.55129844 C-172.29866634 128.52484821 -163.85212896 128.50710409 -155.40547695 128.50065396 C-149.60576477 128.49537972 -143.80614716 128.47909484 -138.00648574 128.45433434 C-134.66512328 128.44038852 -131.32407306 128.43276009 -127.98266029 128.43499184 C-124.34801114 128.43665246 -120.71387804 128.41987723 -117.07929993 128.39872742 C-115.51941132 128.40599878 -115.51941132 128.40599878 -113.92800981 128.41341704 C-103.52037256 128.31408134 -93.28080952 126.33063099 -84 121.5 C-83.33411865 121.15888184 -82.6682373 120.81776367 -81.98217773 120.46630859 C-70.86069953 114.49933268 -62.01149553 105.63563176 -54 96 C-53.55865723 95.48018555 -53.11731445 94.96037109 -52.66259766 94.42480469 C-29.18130209 66.68515967 -13.03222699 33.69913736 0 0 Z " fill="#EEECED" transform="translate(496,362)"/>
<path d="M0 0 C2.70552388 2.19823815 4.44778333 3.89556667 6 7 C6.25869471 11.35178028 6.27106692 15.70742451 6.29516602 20.06591797 C6.31232692 22.22819182 6.35620542 24.38891507 6.40039062 26.55078125 C6.41052276 27.93488462 6.41903723 29.31900097 6.42578125 30.703125 C6.44036377 31.95770508 6.45494629 33.21228516 6.4699707 34.50488281 C5.91181914 38.65579072 4.61724859 40.76739785 2 44 C-2.02702057 46.68468038 -5.2684363 46.68187737 -10 46 C-13.59608722 43.85765016 -15.49625426 41.86759784 -17 38 C-17.39879863 33.60115057 -17.37161335 29.19773213 -17.37060547 24.78320312 C-17.37497249 22.6385112 -17.41129656 20.49588981 -17.44921875 18.3515625 C-17.45508905 16.97656948 -17.45905702 15.60156676 -17.4609375 14.2265625 C-17.46915527 12.98471191 -17.47737305 11.74286133 -17.48583984 10.46337891 C-16.91096556 6.36530525 -15.55516203 4.21398222 -13 1 C-8.89279273 -1.87097855 -4.65732778 -1.31168946 0 0 Z " fill="#384547" transform="translate(162,17)"/>
<path d="M0 0 C3.31900683 1.05823406 5.05102454 2.99017988 7.15625 5.6875 C9.34045226 10.05590451 8.42458515 15.90086396 8.45141602 20.75341797 C8.46857692 22.91569182 8.51245542 25.07641507 8.55664062 27.23828125 C8.56677276 28.62238462 8.57528723 30.00650097 8.58203125 31.390625 C8.59661377 32.64520508 8.61119629 33.89978516 8.6262207 35.19238281 C8.06806914 39.34329072 6.77349859 41.45489785 4.15625 44.6875 C0.12922943 47.37218038 -3.1121863 47.36937737 -7.84375 46.6875 C-11.43969505 44.54523486 -13.33675034 42.55360529 -14.84375 38.6875 C-15.2192699 34.40991105 -15.17307449 30.13589781 -15.15942383 25.84301758 C-15.15626523 23.76004637 -15.17973519 21.6784988 -15.20507812 19.59570312 C-15.20572266 18.27634766 -15.20636719 16.95699219 -15.20703125 15.59765625 C-15.21001221 14.39246338 -15.21299316 13.18727051 -15.21606445 11.94555664 C-14.68337544 7.28409117 -12.79000888 4.74508346 -9.71875 1.3125 C-6.12859319 -0.71671906 -4.00173636 -0.64027782 0 0 Z " fill="#384647" transform="translate(249.84375,16.3125)"/>
<path d="M0 0 C3.70264727 1.68302149 5.94376886 3.50150586 8 7 C8.29218937 9.56226192 8.42110851 11.87442015 8.3984375 14.43359375 C8.40130768 15.14854507 8.40417786 15.8634964 8.40713501 16.60011292 C8.40917193 18.10882359 8.40366801 19.61756089 8.39111328 21.1262207 C8.37507634 23.42655002 8.39096064 25.72511629 8.41015625 28.02539062 C8.40817329 29.49479552 8.40432851 30.96419933 8.3984375 32.43359375 C8.40754654 33.45881386 8.40754654 33.45881386 8.4168396 34.50474548 C8.35357321 38.83599996 7.65595488 41.56207897 5 45 C0.97387033 47.68408645 -2.26816918 47.80610406 -7 47 C-10.57339883 45.07643127 -12.69607513 42.9117746 -14 39 C-14.25113489 34.4615596 -14.27077623 29.92092972 -14.29516602 25.37646484 C-14.30669518 23.87897296 -14.32716217 22.38152248 -14.35668945 20.88427734 C-14.399427 18.71683932 -14.4155411 16.55061987 -14.42578125 14.3828125 C-14.44036377 13.08746582 -14.45494629 11.79211914 -14.4699707 10.45751953 C-13.92093364 6.41831807 -12.85022577 4.85376803 -10 2 C-6.27420911 -0.48386059 -4.41288598 -0.3804212 0 0 Z " fill="#394749" transform="translate(430,16)"/>
<path d="M0 0 C3.70390021 2.02666238 5.65363011 3.48044516 8 7 C8.38923111 11.53307205 8.32912286 16.07577128 8.31567383 20.62353516 C8.31252086 22.86019935 8.33595255 25.09553124 8.36132812 27.33203125 C8.36360202 28.76041501 8.3643042 30.1888023 8.36328125 31.6171875 C8.36626221 32.91253418 8.36924316 34.20788086 8.37231445 35.54248047 C7.89078693 40.01421349 6.32761397 42.5191998 3.375 45.8125 C-0.2962539 47.64812695 -4.0636154 48.28664998 -8 47 C-10.93287377 45.13191899 -12.50898649 43.13935219 -14 40 C-14.74841189 35.20544538 -14.8226445 30.54625666 -14.72729492 25.70239258 C-14.68751499 23.43835306 -14.70663999 21.18015579 -14.73242188 18.91601562 C-14.72486341 17.46351917 -14.71391056 16.01103557 -14.69921875 14.55859375 C-14.68721436 13.25204834 -14.67520996 11.94550293 -14.6628418 10.59936523 C-13.80468502 5.9394001 -12.31190399 4.32318069 -9 1 C-5.89046621 -0.5547669 -3.43733239 -0.28644437 0 0 Z " fill="#394749" transform="translate(340,16)"/>
<path d="M0 0 C2.25708318 1.46972858 4.01366124 3.14909343 6 5 C10.76670501 6.58890167 14.57358149 6.57605363 19.25 4.6875 C21.96618997 3.21612136 21.96618997 3.21612136 23.4375 1.3125 C25 0 25 0 28.4375 -0.4375 C32 0 32 0 34.4375 1.625 C36.54103258 4.82236952 36.73945225 6.22879353 36 10 C32.88932496 15.69240938 27.93724304 18.71809226 22.0546875 21.109375 C14.00933424 23.45507902 7.08263974 22.90116008 -0.5 19.375 C-5.10365119 16.78087909 -8.32680277 14.58262382 -11 10 C-11.66859841 6.28556438 -11.51114192 4.77693571 -9.4375 1.625 C-6.00932673 -0.66044885 -4.04989831 -0.6284325 0 0 Z " fill="#050202" transform="translate(236,295)"/>
<path d="M0 0 C3.7367059 0.71553943 4.68864463 1.49760428 6.9375 4.5625 C7.55422213 7.55181063 7.54155538 10.45667944 7.5 13.5 C7.52384766 14.29857422 7.54769531 15.09714844 7.57226562 15.91992188 C7.56145616 20.2689291 7.31956308 22.06390768 4.59375 25.62109375 C1.9375 27.5625 1.9375 27.5625 -1.125 27.6875 C-4.84803461 26.26165696 -5.93682418 24.92591111 -8.0625 21.5625 C-8.48406306 18.72494449 -8.66925574 16.38445395 -8.625 13.5625 C-8.64884766 12.86382812 -8.67269531 12.16515625 -8.69726562 11.4453125 C-8.68608704 7.49554679 -8.18844188 5.72181648 -5.71875 2.59765625 C-3.0625 0.5625 -3.0625 0.5625 0 0 Z " fill="#070303" transform="translate(314.0625,283.4375)"/>
<path d="M0 0 C3.67456788 2.80172331 4.88599917 4.21474954 5.55859375 8.84765625 C5.54410454 10.25310921 5.50313127 11.65850553 5.4375 13.0625 C5.43169922 13.76955078 5.42589844 14.47660156 5.41992188 15.20507812 C5.33327431 18.89626429 5.15303161 21.92752429 3 25 C-0.10920609 26.55460305 -3.63083028 26.72720693 -7 26 C-9.10233996 24.22585338 -9.88341149 22.76844615 -10.29614258 20.0480957 C-10.44107858 17.69076187 -10.45824834 15.36153885 -10.4375 13 C-10.45748047 12.19304687 -10.47746094 11.38609375 -10.49804688 10.5546875 C-10.49486396 6.69699439 -10.47713871 4.65404396 -8.15625 1.47265625 C-5.16187039 -0.57241823 -3.55510628 -0.6529787 0 0 Z " fill="#040101" transform="translate(186,284)"/>
</svg>
