<?xml version="1.0" encoding="UTF-8"?>
<svg version="1.1" xmlns="http://www.w3.org/2000/svg" width="512" height="512">
<path d="M0 0 C5.066367 1.8670802 5.066367 1.8670802 10.33984375 1.375 C12.44089153 0.07425832 12.44089153 0.07425832 14.109375 -1.5078125 C17.51327487 -4.45673565 22.00740933 -4.14092484 26.3046875 -4.10546875 C30.12073276 -3.73637585 33.17380529 -2.38952358 36.6875 -0.875 C39.6875 0.45833333 39.6875 0.45833333 42.6875 -0.875 C49.99753382 -1.54453763 55.27689412 -0.94349885 61.80859375 2.3515625 C63.74836087 3.35316021 63.74836087 3.35316021 66.1875 2.625 C67.425 1.8825 67.425 1.8825 68.6875 1.125 C74.54119314 -1.88676475 79.04914827 -3.77511549 85.6875 -2.875 C89.04244841 -0.13119969 90.70355473 2.75401306 92.4375 6.6875 C92.86546875 7.63753906 93.2934375 8.58757813 93.734375 9.56640625 C94.6875 12.125 94.6875 12.125 94.6875 15.125 C95.87988281 14.79371094 97.07226562 14.46242188 98.30078125 14.12109375 C105.97813551 12.41251051 113.83558283 13.07663045 121.64648438 13.29101562 C122.84982422 13.30970703 124.05316406 13.32839844 125.29296875 13.34765625 C126.37731201 13.37609619 127.46165527 13.40453613 128.57885742 13.43383789 C132.18953656 13.0751236 134.52943008 11.86089458 137.6875 10.125 C142.75133141 9.03780853 147.63371208 8.55818566 152.5625 10.3125 C156.48638377 11.53521735 159.03965398 10.56825666 162.875 9.25 C169.52962635 6.98014491 175.68769225 5.96825211 182.6875 7.125 C185.79382982 9.27553603 187.02467686 10.59540813 188.5 14 C188.76893824 17.04796676 188.7462929 20.06776896 188.6875 23.125 C189.19039551 22.96418945 189.69329102 22.80337891 190.21142578 22.63769531 C193.57105987 21.94205031 196.88847486 21.94249079 200.3046875 21.921875 C201.0394632 21.91617493 201.77423889 21.91047485 202.53128052 21.90460205 C204.08285086 21.89517627 205.63444099 21.88862771 207.18603516 21.88476562 C209.54755903 21.8750614 211.90821142 21.84401709 214.26953125 21.8125 C215.78124486 21.80596888 217.29296466 21.80071884 218.8046875 21.796875 C219.50488007 21.7845282 220.20507263 21.7721814 220.92648315 21.75946045 C227.00806444 21.7868099 230.86250153 23.51221065 235.375 27.5 C240.6875 33.53040541 240.6875 33.53040541 240.6875 37.125 C250.5875 37.125 260.4875 37.125 270.6875 37.125 C271.3475 35.145 272.0075 33.165 272.6875 31.125 C276.18404518 27.16838309 279.64211872 23.80679376 284.6875 22.125 C286.42095807 22.0371494 288.15763269 22.00735186 289.89331055 22.01147461 C291.48462044 22.01158791 291.48462044 22.01158791 293.108078 22.01170349 C294.25190445 22.01686478 295.3957309 22.02202606 296.57421875 22.02734375 C298.33243706 22.02946617 298.33243706 22.02946617 300.12617493 22.03163147 C303.87580907 22.03723612 307.62538385 22.04978944 311.375 22.0625 C313.91471268 22.0675144 316.4544263 22.07207741 318.99414062 22.07617188 C325.22528073 22.08720706 331.45638612 22.10394975 337.6875 22.125 C337.790625 21.01125 337.89375 19.8975 338 18.75 C338.3403125 16.955625 338.3403125 16.955625 338.6875 15.125 C341.87379827 13.00080116 342.71163474 12.86792202 346.37084961 12.83447266 C347.31870834 12.82171295 348.26656708 12.80895325 349.2431488 12.79580688 C350.7760128 12.79246841 350.7760128 12.79246841 352.33984375 12.7890625 C353.39152237 12.7824057 354.44320099 12.7757489 355.52674866 12.76889038 C357.75178273 12.75876154 359.97684719 12.75407343 362.2019043 12.75439453 C365.60841835 12.75002129 369.01363713 12.71370273 372.41992188 12.67578125 C374.58072473 12.66991323 376.74153375 12.66594374 378.90234375 12.6640625 C379.92222885 12.64969147 380.94211395 12.63532043 381.99290466 12.62051392 C388.98450601 12.66575119 388.98450601 12.66575119 392.3371582 14.85595703 C393.88781408 17.46159719 394.15541105 18.87646905 394.078125 21.890625 C394.05878906 23.22480469 394.05878906 23.22480469 394.0390625 24.5859375 C393.98878906 25.96652344 393.98878906 25.96652344 393.9375 27.375 C393.91945313 28.31085937 393.90140625 29.24671875 393.8828125 30.2109375 C393.83575673 32.51667015 393.77003713 34.82030945 393.6875 37.125 C394.92838379 37.0935791 394.92838379 37.0935791 396.19433594 37.06152344 C399.9419337 36.97838381 403.68933749 36.92634469 407.4375 36.875 C408.73945313 36.84148438 410.04140625 36.80796875 411.3828125 36.7734375 C412.63320313 36.76054688 413.88359375 36.74765625 415.171875 36.734375 C416.90002441 36.7029541 416.90002441 36.7029541 418.66308594 36.67089844 C421.6875 37.125 421.6875 37.125 424.06152344 38.47753906 C426.67135338 42.72693785 426.25769197 46.98497328 426.21875 51.875 C426.2225769 52.92526367 426.22640381 53.97552734 426.23034668 55.05761719 C426.23306696 57.27670247 426.22569777 59.49581974 426.20898438 61.71484375 C426.18757745 65.11270595 426.20878325 68.50845361 426.234375 71.90625 C426.23173175 74.06250467 426.22660682 76.21875802 426.21875 78.375 C426.22684692 79.39174805 426.23494385 80.40849609 426.24328613 81.45605469 C426.22437317 82.87772949 426.22437317 82.87772949 426.20507812 84.328125 C426.20189575 85.15989258 426.19871338 85.99166016 426.19543457 86.84863281 C425.48010177 90.054479 424.33248027 91.20424537 421.6875 93.125 C418.66308594 93.57910156 418.66308594 93.57910156 415.171875 93.515625 C413.92148437 93.50273438 412.67109375 93.48984375 411.3828125 93.4765625 C410.08085937 93.44304687 408.77890625 93.40953125 407.4375 93.375 C406.12007813 93.35695313 404.80265625 93.33890625 403.4453125 93.3203125 C400.19197692 93.27316271 396.94010375 93.20736044 393.6875 93.125 C393.70237654 106.43382893 393.74397826 119.74228132 393.81959057 133.0509119 C393.85386414 139.23084925 393.87897121 145.41053928 393.88305664 151.59057617 C393.88733866 157.555999 393.91579457 163.52086388 393.96093178 169.48611259 C393.97390966 171.76061184 393.97821346 174.03517785 393.97365379 176.30970955 C393.96875016 179.49883204 393.99483196 182.68632239 394.02807617 185.87524414 C394.01945053 186.81320328 394.01082489 187.75116241 394.00193787 188.71754456 C394.11451025 195.1702115 395.58130825 198.16280389 399.6875 203.125 C400.85995774 206.64237321 400.82016285 209.4825132 400.8125 213.1875 C400.81507813 214.43660156 400.81765625 215.68570313 400.8203125 216.97265625 C400.6875 220.125 400.6875 220.125 399.6875 222.125 C400.3475 221.795 401.0075 221.465 401.6875 221.125 C403.64089423 220.95130168 405.60192704 220.85803898 407.5625 220.8125 C409.13644531 220.75642578 409.13644531 220.75642578 410.7421875 220.69921875 C414.4470567 221.23480329 415.4548635 222.16303558 417.6875 225.125 C421.09095592 232.28906461 422.31417802 239.25670934 421.6875 247.125 C422.42097656 247.39183594 423.15445312 247.65867187 423.91015625 247.93359375 C431.72355815 251.28533437 438.1199377 257.40196251 441.6875 265.125 C442.74391961 268.93385982 442.40782786 271.64804868 440.6796875 275.19140625 C436.18564 281.95815777 429.6073503 285.58505881 422.1875 288.5 C417.65227929 289.30986084 413.28017252 289.29133422 408.6875 289.125 C407.61224806 291.77728812 406.59293849 294.40868454 405.6875 297.125 C406.15285156 298.00542969 406.61820312 298.88585937 407.09765625 299.79296875 C409.0426088 303.86924523 409.08157984 306.99877521 409.125 311.4375 C409.31196533 317.33196111 409.80255813 322.02091226 412.75 327.265625 C414.88230308 331.49469278 414.84781093 335.97023108 414.875 340.625 C414.88917969 341.7284375 414.90335937 342.831875 414.91796875 343.96875 C414.61880952 348.06571028 413.81206094 350.96027617 410.9375 353.9375 C408.06886103 355.4515039 405.88907052 355.20810087 402.6875 355.125 C404.15409055 371.86020445 406.30545673 387.90258728 410.6875 404.125 C411.27577215 406.41540384 411.85996947 408.70686407 412.4375 411 C412.65921875 411.84304688 412.8809375 412.68609375 413.109375 413.5546875 C416.58775797 429.01939018 416.10569938 446.84370459 408.6875 461.125 C409.54504883 461.10405273 410.40259766 461.08310547 411.28613281 461.06152344 C414.47668472 460.99323473 417.66686346 460.94314487 420.85791016 460.90527344 C422.2372668 460.88519358 423.61653869 460.85792334 424.99560547 460.82324219 C426.98106979 460.77457183 428.96716254 460.75413582 430.953125 460.734375 C432.14711914 460.71342773 433.34111328 460.69248047 434.57128906 460.67089844 C438.29228556 461.21313077 439.42925602 462.18285414 441.6875 465.125 C442.21875 467.125 442.21875 467.125 442.1875 469.125 C442.1978125 469.785 442.208125 470.445 442.21875 471.125 C441.42028915 474.13097025 440.14182011 475.22106309 437.6875 477.125 C434.93603809 477.51707261 432.58512761 477.66290488 429.83508301 477.62836456 C428.63458895 477.63708521 428.63458895 477.63708521 427.40984249 477.64598203 C424.71107769 477.66065335 422.01321225 477.64666387 419.31445312 477.63293457 C417.36694115 477.63754067 415.41943265 477.64389162 413.47193146 477.65184355 C408.1070545 477.66859995 402.74246077 477.66026187 397.37758255 477.64789867 C391.59699802 477.63887626 385.8164634 477.65280392 380.03588867 477.66381836 C368.70651483 477.68163826 357.37724678 477.67774815 346.04786873 477.6661678 C336.84318292 477.65714738 327.63852684 477.65590343 318.43383789 477.66026306 C317.12556424 477.66087599 315.81729058 477.66148893 314.46937227 477.66212043 C311.81193732 477.66339929 309.15450238 477.66469614 306.49706745 477.6660108 C282.26877352 477.67750327 258.04053314 477.66558499 233.81224835 477.64464041 C211.68469711 477.62565732 189.55723794 477.62735581 167.4296875 477.64648438 C142.58135292 477.66789306 117.73307 477.67632803 92.88472748 477.66403532 C90.23687236 477.66276108 87.58901724 477.66150359 84.94116211 477.66026306 C82.98678624 477.65933741 82.98678624 477.65933741 80.99292803 477.65839306 C71.7954844 477.65493417 62.59807335 477.66078009 53.40063477 477.67018127 C42.19748524 477.68138049 30.99444788 477.67840502 19.79131126 477.6570583 C14.07137247 477.6465199 8.35162091 477.64247348 2.63168335 477.65565491 C-2.59902667 477.66752693 -7.82937496 477.66110231 -13.06005192 477.6397447 C-14.9576993 477.63525654 -16.8553769 477.63759412 -18.75300503 477.64724785 C-21.32247231 477.65932213 -23.89068261 477.64702924 -26.46008301 477.62836456 C-27.57848241 477.64241156 -27.57848241 477.64241156 -28.71947575 477.65674233 C-32.18541597 477.6060392 -33.99397485 477.37209563 -36.77007294 475.21853971 C-38.44289059 472.94802056 -38.85601767 471.91013085 -38.8125 469.125 C-38.8228125 468.465 -38.833125 467.805 -38.84375 467.125 C-38.00620047 463.97187235 -37.03774801 462.96903009 -34.3125 461.125 C-30.88281274 460.63547903 -27.51780925 460.74917641 -24.0625 460.875 C-23.12664063 460.89304687 -22.19078125 460.91109375 -21.2265625 460.9296875 C-18.92082985 460.97674327 -16.61719055 461.04246287 -14.3125 461.125 C-14.35890625 460.2071875 -14.4053125 459.289375 -14.453125 458.34375 C-14.82142315 445.82161303 -11.94496184 440.89256086 -3.9675293 431.70019531 C4.67057562 421.49900475 5.72979012 409.06564092 4.6875 396.125 C3.40225082 386.3186054 1.24827548 376.63502458 -0.87280273 366.98193359 C-2.59714425 359.10378017 -3.95634455 351.24918553 -5 343.25 C-5.11931885 342.33549072 -5.2386377 341.42098145 -5.36157227 340.47875977 C-7.1531718 326.04103247 -7.55115201 311.71911797 -7.5625 297.1875 C-7.56383942 296.1738739 -7.56517883 295.1602478 -7.56655884 294.11590576 C-7.56011534 271.55433714 -6.28665793 249.20885012 -1.3125 227.125 C-2.41658203 227.21201172 -2.41658203 227.21201172 -3.54296875 227.30078125 C-8.18444003 227.51538032 -11.36744947 227.64385127 -15.5 225.375 C-18.89230111 219.29225319 -18.00784677 212.22076516 -16.3125 205.625 C-15.9825 204.47 -15.6525 203.315 -15.3125 202.125 C-15.3125 200.805 -15.3125 199.485 -15.3125 198.125 C-17.51216576 196.14829086 -17.51216576 196.14829086 -20.375 194.375 C-32.54464832 185.90027074 -32.54464832 185.90027074 -34.0625 178.4375 C-33.08375522 174.11471054 -31.77885328 172.88393425 -28.3125 170.125 C-27.69246094 169.63 -27.07242187 169.135 -26.43359375 168.625 C-17.25906114 161.86659661 -7.02150339 159.74752881 4.203125 159.3984375 C5.43289062 159.26308594 5.43289062 159.26308594 6.6875 159.125 C7.0175 158.465 7.3475 157.805 7.6875 157.125 C6.92566406 156.89425781 6.16382813 156.66351563 5.37890625 156.42578125 C-11.28825119 151.16137322 -11.28825119 151.16137322 -15.3125 145.125 C-16.17497157 136.00900304 -11.32936233 128.14919626 -6.01953125 121.06640625 C-2.38607612 116.87302169 0.33107179 113.89168158 5.6875 112.125 C5.6875 111.135 5.6875 110.145 5.6875 109.125 C4.82125 109.0425 3.955 108.96 3.0625 108.875 C-3.69489322 107.37335706 -8.51891066 102.75977765 -12.3125 97.125 C-12.98046875 94.90625 -12.98046875 94.90625 -13.3125 93.125 C-14.42625 93.021875 -15.54 92.91875 -16.6875 92.8125 C-17.88375 92.585625 -19.08 92.35875 -20.3125 92.125 C-22.51442224 88.82211664 -22.55209968 87.85037273 -22.5078125 84.01953125 C-22.50136719 83.03662109 -22.49492187 82.05371094 -22.48828125 81.04101562 C-22.47152344 80.01685547 -22.45476563 78.99269531 -22.4375 77.9375 C-22.42847656 76.90173828 -22.41945313 75.86597656 -22.41015625 74.79882812 C-22.3865786 72.24065315 -22.3536703 69.68294252 -22.3125 67.125 C-23.20324219 66.856875 -24.09398437 66.58875 -25.01171875 66.3125 C-28.10183671 65.20078892 -30.42520155 63.96472637 -33.125 62.125 C-33.89457031 61.609375 -34.66414063 61.09375 -35.45703125 60.5625 C-38.23190443 58.41270352 -38.29801803 57.22456352 -38.8125 53.6875 C-38.71310324 45.87775479 -32.61694592 39.22223731 -27.375 33.9375 C-26.36434357 32.98903781 -25.34754394 32.04678685 -24.3125 31.125 C-24.49425781 30.53074219 -24.67601562 29.93648437 -24.86328125 29.32421875 C-25.39624673 27.56679924 -25.92308841 25.80751623 -26.4453125 24.046875 C-27.01208233 22.13721808 -27.58976523 20.2307572 -28.1796875 18.328125 C-29.86012943 12.66263506 -31.42103433 7.04950012 -30.3125 1.125 C-28.42505534 -1.67121431 -27.27883624 -2.62017846 -24.03125 -3.4765625 C-15.56430023 -4.71740859 -7.88869938 -2.86392684 0 0 Z M189.6875 127.125 C187.88910159 129.18903621 186.12732354 131.27237545 184.375 133.375 C175.32461753 144.06274693 165.69630958 153.44592359 154.6875 162.125 C153.93597656 162.75535156 153.18445313 163.38570312 152.41015625 164.03515625 C135.98603193 177.7078888 116.75053777 189.65053495 96.6875 197.125 C97.98909168 201.22440558 99.53694208 205.08546588 101.3125 209 C103.9036106 215.13483539 104.84209364 219.66121909 102.6875 226.125 C100.5625 227.125 100.5625 227.125 97.6875 228.125 C96.5325 228.640625 95.3775 229.15625 94.1875 229.6875 C86.35830886 232.90306065 78.71839948 232.79331048 70.50073242 231.1105957 C69.14899178 230.83527763 69.14899178 230.83527763 67.76994324 230.55439758 C67.08273697 230.41269638 66.3955307 230.27099518 65.6875 230.125 C65.42940294 247.93714972 65.23601354 265.74880771 65.11756611 283.56242943 C65.06108211 291.83555351 64.98421861 300.10750926 64.85766602 308.37988281 C64.747287 315.59853938 64.67688812 322.81634918 64.65252656 330.03582633 C64.63830645 333.85149413 64.60541732 337.66474179 64.52446938 341.4796257 C64.16101155 359.30565519 64.95889092 372.83278716 76.6875 387.125 C77.7076822 388.48956473 78.71922651 389.86063147 79.72187805 391.23812866 C81.50344262 393.68385295 83.29987966 396.11683941 85.11328125 398.5390625 C99.61436349 418.36564431 102.6875 436.12968972 102.6875 461.125 C167.6975 461.125 232.7075 461.125 299.6875 461.125 C299.3575 459.145 299.0275 457.165 298.6875 455.125 C297.4748938 438.03645169 298.74568286 423.02110777 309.6875 409.125 C316.72550042 401.40355739 326.04444967 395.88112464 334.6875 390.125 C335.6775 389.465 336.6675 388.805 337.6875 388.125 C338.05385731 385.21633342 338.22768228 382.52677629 338.26171875 379.609375 C338.2764473 378.76078918 338.29117584 377.91220337 338.30635071 377.03790283 C338.3303304 375.23906482 338.34573161 373.44009532 338.35327148 371.64111328 C338.37482116 368.89776639 338.45492015 366.16007776 338.53710938 363.41796875 C339.01806743 354.61382394 339.01806743 354.61382394 335.95898438 346.7175293 C333.93014252 345.25970526 331.9311239 344.20770032 329.6875 343.125 C327.8828125 340.67578125 327.8828125 340.67578125 326.8125 338.4375 C326.44382812 337.69113281 326.07515625 336.94476563 325.6953125 336.17578125 C325.19644531 335.16064453 325.19644531 335.16064453 324.6875 334.125 C324.0275 333.135 323.3675 332.145 322.6875 331.125 C322.14867187 331.3415625 321.60984375 331.558125 321.0546875 331.78125 C314.13830698 334.12284591 307.54497664 334.42801012 300.3125 334.4375 C299.34940918 334.44265625 298.38631836 334.4478125 297.39404297 334.453125 C288.44920569 334.36553785 288.44920569 334.36553785 284.6875 332.125 C281.15025759 326.81913638 282.06689463 319.35432636 282.6875 313.125 C284.63366862 304.6436856 289.65543781 297.78956738 296.0625 292.0625 C298.94912753 289.34404106 298.94912753 289.34404106 299.3125 285.75 C298.65868996 281.95790175 297.45384726 279.4878703 295.6484375 276.15234375 C293.27403177 271.14292678 293.59680947 266.37790946 294.3125 261.0625 C294.81299113 256.98442413 294.30439809 254.87248145 292.40625 251.1640625 C290.50362243 245.76639081 290.69889121 238.98840292 292.5546875 233.61328125 C293.5064525 231.73406641 294.58907016 229.92243064 295.6875 228.125 C296.0175 227.135 296.3475 226.145 296.6875 225.125 C298.625 224 298.625 224 300.6875 223.125 C301.3475 222.795 302.0075 222.465 302.6875 222.125 C302.4709375 221.49078125 302.254375 220.8565625 302.03125 220.203125 C299.98058175 213.32958883 299.33366415 206.90067001 299.25 199.75 C299.22808594 198.89438477 299.20617187 198.03876953 299.18359375 197.15722656 C299.20126262 191.51864753 300.09154341 188.49711356 303.6875 184.125 C302.718125 183.25875 301.74875 182.3925 300.75 181.5 C295.3498981 176.15522701 291.62804633 169.56748051 287.6875 163.125 C286.65753906 163.28484375 285.62757813 163.4446875 284.56640625 163.609375 C256.77622943 167.05337846 229.97373596 163.53572042 207.36328125 146.359375 C201.517745 141.50339724 197.13125701 135.77092314 192.65625 129.6875 C191.68171875 128.4190625 191.68171875 128.4190625 190.6875 127.125 C190.3575 127.125 190.0275 127.125 189.6875 127.125 Z " fill="#020202" transform="translate(54.3125,18.875)"/>
<path d="M0 0 C0.598125 0.9075 1.19625 1.815 1.8125 2.75 C4.2946752 6.43780315 6.23988123 7.77811163 10 10 C9.4636769 14.63496065 8.80654421 19.22361246 8.02734375 23.82421875 C-0.04013238 73.37321692 4.91254849 124.45211618 29 169 C29.52851562 169.99644531 30.05703125 170.99289062 30.6015625 172.01953125 C34.59329289 179.20661232 39.3717011 185.73042667 44.22119141 192.34912109 C55.62343052 207.99698046 64.01195286 224.14007818 62 244 C61.04508055 246.02191218 60.05050975 248.0260625 59 250 C47.57814609 250.11572958 36.1564311 250.20463193 24.73411083 250.25906086 C19.4305218 250.28518104 14.12733316 250.32062349 8.82397461 250.37719727 C3.70815903 250.43143036 -1.40727087 250.46140228 -6.52335167 250.47438622 C-8.47748578 250.48364175 -10.43159822 250.50171537 -12.38556862 250.52865028 C-15.11794663 250.56482535 -17.84872081 250.56995026 -20.58129883 250.56762695 C-21.79941757 250.59459152 -21.79941757 250.59459152 -23.04214478 250.62210083 C-25.29841614 250.60127258 -25.29841614 250.60127258 -29 250 C-31.3561507 247.23517018 -31.92130692 245.57238077 -32.4140625 241.98828125 C-31.9080963 238.33673273 -30.80264489 236.92882934 -28.375 234.1875 C-13.92090945 217.07753415 -11.95235903 200.88405573 -13 179 C-13.53241093 173.56940848 -14.72378303 168.29954503 -16 163 C-16.67673402 160.12727766 -17.34213413 157.25210031 -18 154.375 C-18.16894775 153.63894531 -18.33789551 152.90289062 -18.51196289 152.14453125 C-22.45191337 134.40622605 -24.13497396 116.12837944 -24.203125 97.984375 C-24.20882507 96.77090393 -24.21452515 95.55743286 -24.22039795 94.30718994 C-24.22978937 91.74907282 -24.23635842 89.19094392 -24.24023438 86.6328125 C-24.24986958 82.80185643 -24.28092181 78.97145408 -24.3125 75.140625 C-24.40070301 54.46236439 -22.79723909 34.15888995 -18 14 C-17.85691406 13.18402344 -17.71382812 12.36804688 -17.56640625 11.52734375 C-16.64579068 7.70928695 -15.58858382 6.38654512 -12.24609375 4.19140625 C-4.20207852 0 -4.20207852 0 0 0 Z " fill="#E4EFD7" transform="translate(84,230)"/>
<path d="M0 0 C3.66836289 0.28218176 5.36413765 1.0054404 8.25 3.25 C10.17869176 6.33692058 10.53823016 8.84593134 10.6640625 12.453125 C10.72207031 13.92265625 10.72207031 13.92265625 10.78125 15.421875 C10.8121875 16.43765625 10.843125 17.4534375 10.875 18.5 C10.93300781 20.046875 10.93300781 20.046875 10.9921875 21.625 C11.08631674 24.1664894 11.17194979 26.70797433 11.25 29.25 C12.90614657 29.63218767 14.57457024 29.96395102 16.25 30.25 C17.95113248 28.54886752 17.38012381 26.36657034 17.3828125 24.04296875 C17.38410156 22.98142578 17.38539063 21.91988281 17.38671875 20.82617188 C17.38091797 19.1487793 17.38091797 19.1487793 17.375 17.4375 C17.37886719 16.33083984 17.38273437 15.22417969 17.38671875 14.08398438 C17.38478516 12.48586914 17.38478516 12.48586914 17.3828125 10.85546875 C17.38112061 9.38823364 17.38112061 9.38823364 17.37939453 7.89135742 C17.26312702 5.51796456 16.82365924 3.538437 16.25 1.25 C17.25 0.25 17.25 0.25 20 0 C23.69269981 0.28405383 25.37827937 0.93666949 28.25 3.25 C30.40625266 7.43112075 30.67990427 11.64230651 31.0625 16.25 C32.48343524 30.18355905 37.6965873 42.75192857 48.25 52.25 C49.5803125 53.4875 49.5803125 53.4875 50.9375 54.75 C59.69666928 61.85142369 70.37284228 64.84395201 81.54296875 64.5625 C89.87595404 63.60053922 97.28995251 61.01685318 103.6640625 55.51953125 C105.25 54.25 105.25 54.25 108.25 53.25 C109.31034945 51.44329886 109.31034945 51.44329886 110.25 49.25 C111.26370476 47.62054354 112.28499146 45.99578743 113.3125 44.375 C115.57586315 40.65229078 117.01640263 37.68834996 117.25 33.25 C114.90466049 32.48043864 114.90466049 32.48043864 112.25 32.25 C110.57517518 33.67452044 110.57517518 33.67452044 109.25 35.25 C109.25523682 34.3621582 109.26047363 33.47431641 109.26586914 32.55957031 C109.28293868 29.25715482 109.29546363 25.95478641 109.30493164 22.65234375 C109.30995206 21.22460184 109.31676972 19.79686504 109.32543945 18.36914062 C109.33760553 16.31378921 109.34325128 14.25850593 109.34765625 12.203125 C109.35289307 10.96723633 109.35812988 9.73134766 109.36352539 8.45800781 C109.27022216 5.82143922 108.91691506 3.76668909 108.25 1.25 C109.25 0.25 109.25 0.25 112 0 C115.69269981 0.28405383 117.37827937 0.93666949 120.25 3.25 C121.91000632 6.66853688 122.52494607 9.55270155 122.6640625 13.33203125 C122.70273437 14.26337891 122.74140625 15.19472656 122.78125 16.15429688 C122.82765625 17.59385742 122.82765625 17.59385742 122.875 19.0625 C122.91367187 20.04154297 122.95234375 21.02058594 122.9921875 22.02929688 C123.08610816 24.43601374 123.17178201 26.84273012 123.25 29.25 C124.90614657 29.63218767 126.57457024 29.96395102 128.25 30.25 C129.95113248 28.54886752 129.38012381 26.36657034 129.3828125 24.04296875 C129.38474609 22.4506543 129.38474609 22.4506543 129.38671875 20.82617188 C129.38285156 19.70791016 129.37898437 18.58964844 129.375 17.4375 C129.37886719 16.33083984 129.38273438 15.22417969 129.38671875 14.08398438 C129.38542969 13.01857422 129.38414062 11.95316406 129.3828125 10.85546875 C129.38112061 9.38823364 129.38112061 9.38823364 129.37939453 7.89135742 C129.26312702 5.51796456 128.82365924 3.538437 128.25 1.25 C129.25 0.25 129.25 0.25 132 0 C135.69269981 0.28405383 137.37827937 0.93666949 140.25 3.25 C142.81811248 8.52203592 142.59349615 13.43406819 142.5625 19.1875 C142.55831055 20.24565918 142.55412109 21.30381836 142.54980469 22.39404297 C142.18935409 48.16626101 137.06740538 75.93041329 120.25 96.25 C119.75886719 96.90226562 119.26773438 97.55453125 118.76171875 98.2265625 C112.29280558 106.49948244 102.92776763 111.59087013 93.25 115.25 C92.20972656 115.64445312 91.16945313 116.03890625 90.09765625 116.4453125 C70.3425502 122.80072345 47.57486562 120.75541051 28.875 112.0625 C7.44907994 100.4670078 -3.88550358 80.97627585 -10.73657227 58.31347656 C-11.42258528 55.96292556 -12.08984075 53.60792874 -12.75 51.25 C-12.94577637 50.56969727 -13.14155273 49.88939453 -13.34326172 49.18847656 C-15.97401326 39.95672136 -17.54500312 30.76877804 -18.71166992 21.25439453 C-18.81970947 20.40216309 -18.92774902 19.54993164 -19.0390625 18.671875 C-19.12881348 17.91487305 -19.21856445 17.15787109 -19.31103516 16.37792969 C-19.7857412 14.07674067 -20.68494035 12.33163237 -21.75 10.25 C-21.41175761 6.75482863 -19.61374744 4.1671699 -17.75 1.25 C-14.68821452 1.49825288 -13.19076202 1.74990463 -11.125 4.09375 C-9.06272862 8.82760022 -9.17699222 13.44960441 -9.0625 18.5625 C-9.01125977 20.10260742 -9.01125977 20.10260742 -8.95898438 21.67382812 C-8.87676591 24.19910963 -8.80753064 26.7240554 -8.75 29.25 C-7.09385343 29.63218767 -5.42542976 29.96395102 -3.75 30.25 C-2.04886752 28.54886752 -2.61987619 26.36657034 -2.6171875 24.04296875 C-2.61589844 22.98142578 -2.61460937 21.91988281 -2.61328125 20.82617188 C-2.61908203 19.1487793 -2.61908203 19.1487793 -2.625 17.4375 C-2.62113281 16.33083984 -2.61726563 15.22417969 -2.61328125 14.08398438 C-2.61521484 12.48586914 -2.61521484 12.48586914 -2.6171875 10.85546875 C-2.61831543 9.87731201 -2.61944336 8.89915527 -2.62060547 7.89135742 C-2.73687298 5.51796456 -3.17634076 3.538437 -3.75 1.25 C-2.75 0.25 -2.75 0.25 0 0 Z " fill="#E3EED6" transform="translate(253.75,52.75)"/>
<path d="M0 0 C0.45483398 2.90478516 0.45483398 2.90478516 0.74609375 6.7890625 C0.83105858 7.83228165 0.83105858 7.83228165 0.91773987 8.89657593 C1.0999983 11.13877812 1.27013896 13.38163969 1.4375 15.625 C2.5070311 29.94050691 4.48626697 43.62894935 8.625 57.4375 C11.3247451 66.46075519 12.19554213 74.98101694 12.25 84.375 C12.270625 85.25671875 12.29125 86.1384375 12.3125 87.046875 C12.36912525 96.70147953 10.19754537 104.53116327 4 112 C1.061039 113.4694805 -1.9166616 113.17317487 -5.14013672 113.19287109 C-6.24284409 113.20513733 -6.24284409 113.20513733 -7.36782837 113.21765137 C-9.80510642 113.24250212 -12.24232631 113.25901918 -14.6796875 113.2734375 C-15.51133549 113.27876118 -16.34298347 113.28408485 -17.19983292 113.28956985 C-21.60049773 113.31629822 -26.00113418 113.33567534 -30.40185547 113.35009766 C-34.95076584 113.3667581 -39.49895346 113.41154771 -44.04759026 113.4624691 C-47.54258066 113.49609463 -51.03739838 113.50766977 -54.53253555 113.51332474 C-56.20952004 113.52004874 -57.88649272 113.53530068 -59.56332016 113.55921555 C-61.90984112 113.59077588 -64.25439745 113.59091894 -66.60107422 113.58349609 C-67.29420715 113.59990143 -67.98734009 113.61630676 -68.70147705 113.63320923 C-72.36397556 113.58575995 -73.73955367 113.25736137 -76.38577271 110.64248657 C-81.29062605 102.6132523 -81.2886907 92.88697342 -79.3125 83.859375 C-74.57673763 69.73101726 -63.82895144 62.16288512 -52.00439453 54.12011719 C-36.01990189 43.22482414 -23.46592812 30.73261733 -19.48535156 11.10375977 C-19.20931271 9.60801804 -18.96863951 8.1051942 -18.76855469 6.59741211 C-18.41015625 4.51953125 -18.41015625 4.51953125 -17 1 C-11.69823247 -2.46496915 -5.73164779 -2.86582389 0 0 Z " fill="#E3EED6" transform="translate(444,367)"/>
<path d="M0 0 C0.94735519 0.0028299 1.89471039 0.00565979 2.87077332 0.00857544 C5.88663541 0.01974063 8.90219691 0.04483861 11.91796875 0.0703125 C13.96679258 0.08034703 16.01562107 0.08947205 18.06445312 0.09765625 C23.07824023 0.11966801 28.09180358 0.15417279 33.10546875 0.1953125 C33.40937531 1.1195401 33.40937531 1.1195401 33.71942139 2.06243896 C33.98700256 2.87166809 34.25458374 3.68089722 34.53027344 4.51464844 C34.92699249 5.71731354 34.92699249 5.71731354 35.33172607 6.9442749 C36.49644882 10.33278476 37.9617196 13.57221656 39.43359375 16.8359375 C40.27301718 19.78368023 40.08597454 21.29427474 39.10546875 24.1953125 C28.37966321 39.98469601 12.9678987 54.50621219 -1.89453125 66.1953125 C-2.8690625 66.98679687 -3.84359375 67.77828125 -4.84765625 68.59375 C-16.91808008 78.20763029 -29.94758578 85.98184496 -43.83203125 92.6953125 C-44.67121094 93.10458984 -45.51039063 93.51386719 -46.375 93.93554688 C-52.39011055 96.75867659 -58.44259743 98.62971895 -64.89453125 100.1953125 C-64.97613945 97.81960707 -65.03530347 95.44675409 -65.08203125 93.0703125 C-65.10716797 92.40515625 -65.13230469 91.74 -65.15820312 91.0546875 C-65.20953248 87.56429153 -64.95309791 85.3118436 -63.375 82.171875 C-61.50356899 78.40926172 -61.75716859 75.8592618 -62.01953125 71.6953125 C-62.21096679 63.55132537 -62.21096679 63.55132537 -59.51953125 60.5078125 C-58.65328125 59.7446875 -57.78703125 58.9815625 -56.89453125 58.1953125 C-53.7913546 53.33862849 -54.28627545 47.74034213 -54.89453125 42.1953125 C-55.94559094 39.19750747 -57.21710308 36.92113327 -58.89453125 34.1953125 C-58.30285156 34.40027344 -57.71117187 34.60523438 -57.1015625 34.81640625 C-49.66059994 37.35337391 -42.83477016 39.02447019 -34.89453125 38.1953125 C-32.53294045 36.27151491 -32.53294045 36.27151491 -32.6640625 32.859375 C-32.66805388 31.51295057 -32.68280962 30.16652496 -32.70703125 28.8203125 C-32.70767578 28.14742187 -32.70832031 27.47453125 -32.70898438 26.78125 C-32.7384933 23.45002066 -32.87371061 20.38027288 -33.89453125 17.1953125 C-33.23066406 16.95296875 -32.56679687 16.710625 -31.8828125 16.4609375 C-25.35612639 13.98365518 -20.26220069 11.97418786 -16.89453125 5.5703125 C-12.98720026 -1.02330855 -6.93510974 -0.07825843 0 0 Z " fill="#E3EED7" transform="translate(200.89453125,107.8046875)"/>
<path d="M0 0 C10.56 0 21.12 0 32 0 C32 55.44 32 110.88 32 168 C29.69 168 27.38 168 25 168 C23.50390625 166.390625 23.50390625 166.390625 22.5625 164.25 C19.77905711 159.17695086 17.50094821 157.9369536 12 156 C8.04 155.67 4.08 155.34 0 155 C0 103.85 0 52.7 0 0 Z " fill="#B4754B" transform="translate(404,44)"/>
<path d="M0 0 C3.01174014 1.50587007 5.06251506 3.24154687 7 6 C7.67346357 8.49430951 8.00622941 10.92338657 8.3359375 13.484375 C9.14490057 16.54891744 10.41283115 17.88639088 12.625 20.125 C15.13172381 22.73682753 16.551859 24.392393 16.8125 28.0625 C16.37229289 32.81111709 13.53558371 35.99961933 10 39 C7.796875 40.1953125 7.796875 40.1953125 6 41 C6.65585189 44.60992379 6.65585189 44.60992379 8 48 C8.79674298 54.71540516 8.79674298 54.71540516 6.73046875 58.046875 C3.40766769 61.95985727 1.56547947 63.81426515 -3.6875 64.4375 C-8.15205663 64.39683919 -10.35249501 62.65212087 -13.5546875 59.703125 C-15.08178209 57.90362975 -16.03824167 56.14761569 -17 54 C-19.76276177 54.52268466 -22.3260876 55.10869587 -25 56 C-28.49110367 56.46995626 -30.94242809 56.67927049 -33.9765625 54.73046875 C-38.58221925 50.8355615 -38.58221925 50.8355615 -40 48 C-40.51085873 41.76752349 -40.07225748 39.83580576 -36 35 C-35.4161804 31.9149255 -35.4161804 31.9149255 -36 29 C-37.37514541 27.2912354 -37.37514541 27.2912354 -39 26 C-40.23534045 22.29397865 -40.45528745 19.90246386 -40 16 C-37.89797249 12.72730487 -35.511593 9.7557965 -32 8 C-27.62174619 7.75676368 -24.81950923 7.89268456 -21 10 C-19.68 10 -18.36 10 -17 10 C-15.61558 8.03501678 -14.28796166 6.02951535 -13 4 C-9.1827261 -0.02934467 -5.42968689 -1.31628773 0 0 Z " fill="#F77281" transform="translate(92,60)"/>
<path d="M0 0 C5.78743348 3.3851026 7.71898656 7.84126371 10 14 C10.66386719 14.02578125 11.32773437 14.0515625 12.01171875 14.078125 C17.52890176 14.4325134 21.03659727 14.7888846 25 19 C27.48690833 22.7303625 27.62281125 25.68129567 27 30 C25.44470023 33.67616309 24.0877744 35.45099787 20.5078125 37.2578125 C18.02665636 38.26292674 15.54584428 39.17405815 13 40 C13.061875 38.783125 13.12375 37.56625 13.1875 36.3125 C13.17370973 32.43053804 12.69352006 29.97216006 10 27 C7.37305578 26.58219121 7.37305578 26.58219121 5 27 C4.30840599 28.84725052 4.30840599 28.84725052 4 31 C4.66 31.99 5.32 32.98 6 34 C5.48275862 37.51724138 5.48275862 37.51724138 4 39 C2.33382885 39.04063832 0.66611905 39.042721 -1 39 C-1.66 37.02 -2.32 35.04 -3 33 C-4.65614657 32.61781233 -6.32457024 32.28604898 -8 32 C-9.30408759 33.09069279 -9.30408759 33.09069279 -9.25 35.75 C-8.96942185 39.39751591 -8.17668643 41.09775143 -6 44 C-2.29826771 46.46782153 0.70506325 46.56313261 5 46 C7.80167287 44.73666727 7.80167287 44.73666727 10 43 C10.99 42.34 11.98 41.68 13 41 C14.44627785 45.33883354 14.52876805 49.46563287 14 54 C11.95686327 57.50252011 9.90212767 59.77361702 6 61 C0.12101359 61.65322071 -2.22515394 60.21783104 -7 57 C-10.18514003 57.07768634 -11.71797293 57.81445588 -14.375 59.5625 C-17.9456044 61.51783098 -19.97526979 61.6245271 -24 61 C-27.81734468 58.59143729 -30.55783649 56.32649052 -32 52 C-32.38759882 46.76741598 -31.65995355 44.39470586 -29 40 C-29.08497772 36.6008912 -29.7317519 35.30177911 -32 32.75 C-34.73931981 28.98343526 -35.35023256 25.62632773 -35 21 C-32.96977258 16.86435155 -31.23743087 14.70558488 -27 13 C-24.421875 12.5859375 -24.421875 12.5859375 -21.75 12.375 C-20.85796875 12.30023438 -19.9659375 12.22546875 -19.046875 12.1484375 C-18.37140625 12.09945312 -17.6959375 12.05046875 -17 12 C-16.690625 10.4221875 -16.690625 10.4221875 -16.375 8.8125 C-15.35145731 5.33951378 -13.82726233 3.08528352 -10.83984375 0.88671875 C-7.24285692 -0.84686089 -3.85571356 -0.83759666 0 0 Z " fill="#F77280" transform="translate(392,237)"/>
<path d="M0 0 C21.12 0 42.24 0 64 0 C64 19.125 64 19.125 63 25.5625 C62.7215625 27.42068359 62.7215625 27.42068359 62.4375 29.31640625 C62.293125 30.20199219 62.14875 31.08757812 62 32 C55.45365056 32.22910607 48.90834162 32.38617303 42.35888672 32.49438477 C40.1335589 32.53951243 37.90849599 32.60083363 35.68408203 32.67895508 C17.25670341 33.30969086 17.25670341 33.30969086 11.81591797 30.15209961 C9.71937637 27.85596725 8.34172071 25.79369179 7 23 C6.40445312 22.00871094 5.80890625 21.01742187 5.1953125 19.99609375 C2.41998289 13.36163793 0 7.28817888 0 0 Z " fill="#784F32" transform="translate(292,68)"/>
<path d="M0 0 C3.86294414 2.12083208 6.76029774 4.18717354 9 8 C9.08203125 10.875 9.08203125 10.875 8.8125 14 C8.65118946 17.15049559 8.65118946 17.15049559 9 20 C11.68385769 22.62302514 11.68385769 22.62302514 15 24 C17.15822842 25.94240558 17.89225335 27.20387196 18.28125 30.078125 C18.46940986 34.8134816 18.2534788 38.31272403 15 42 C10.09223781 45.38869294 5.73242442 45.34394547 0 45 C-0.47179687 45.92232422 -0.47179687 45.92232422 -0.953125 46.86328125 C-1.38109375 47.67152344 -1.8090625 48.47976563 -2.25 49.3125 C-2.66765625 50.11300781 -3.0853125 50.91351563 -3.515625 51.73828125 C-5.14088682 54.21466702 -6.44246383 55.5151301 -9 57 C-13.05276872 57.80252846 -17.18277647 57.88494052 -20.94921875 56.05078125 C-24.4266793 53.38164082 -25.3728582 51.19268954 -26 47 C-27.32064453 46.96132813 -27.32064453 46.96132813 -28.66796875 46.921875 C-29.82941406 46.86515625 -30.99085938 46.8084375 -32.1875 46.75 C-33.33605469 46.70359375 -34.48460937 46.6571875 -35.66796875 46.609375 C-39.51051008 45.90663591 -41.26221074 44.74294517 -44 42 C-44 41.34 -44 40.68 -44 40 C-43.20335937 39.90203125 -42.40671875 39.8040625 -41.5859375 39.703125 C-34.10806151 38.64785296 -29.21192504 37.40226134 -23.890625 31.765625 C-21.65635922 28.49731886 -21.48976122 26.47706296 -21.25 22.5625 C-20.51417877 16.5746704 -20.51417877 16.5746704 -18.20703125 13.99609375 C-16.80394175 13.01725353 -15.36995109 12.08095772 -13.90625 11.1953125 C-10.63486116 9.14399081 -9.34957597 6.39830386 -8.4375 2.75 C-8.293125 2.1725 -8.14875 1.595 -8 1 C-5.13391871 -0.43304064 -3.18699217 -0.30644155 0 0 Z " fill="#F67180" transform="translate(434,266)"/>
<path d="M0 0 C0.33 0 0.66 0 1 0 C1.06952787 10.34430764 1.12282548 20.68855963 1.15543652 31.0330534 C1.17108864 35.83649134 1.1923187 40.63976934 1.22631836 45.44311523 C1.25892789 50.07911055 1.27685643 54.71495208 1.28463173 59.35105324 C1.29017237 61.11928541 1.30099191 62.88750923 1.31719017 64.65567589 C1.33898578 67.1335096 1.34196606 69.61070881 1.34057617 72.08862305 C1.351362 72.81870575 1.36214783 73.54878845 1.3732605 74.30099487 C1.34648821 78.7154801 0.62631304 81.43800416 -2 85 C-16.09720105 82.74444783 -27.90893685 72.46578494 -36.2734375 61.43359375 C-43 51.95248869 -43 51.95248869 -43 49 C-38.71 47.02 -34.42 45.04 -30 43 C-30 44.65 -30 46.3 -30 48 C-28.04155727 51.29605348 -25.5072747 54.10618711 -23 57 C-22.525625 57.56976563 -22.05125 58.13953125 -21.5625 58.7265625 C-20.2246484 60.29805856 -20.2246484 60.29805856 -18 62 C-15.72476911 61.95502158 -15.72476911 61.95502158 -14 61 C-13.65204786 57.76575635 -13.7300522 56.38023526 -15.64453125 53.68359375 C-16.35996094 52.94238281 -17.07539063 52.20117188 -17.8125 51.4375 C-21.88480448 47.15750057 -21.88480448 47.15750057 -23.57421875 44.84765625 C-25.04347754 42.74001482 -25.04347754 42.74001482 -28 41 C-27.21496094 40.32195312 -26.42992187 39.64390625 -25.62109375 38.9453125 C-13.40664688 28.20975358 -4.865541 15.66466859 0 0 Z " fill="#E3EED6" transform="translate(395,125)"/>
<path d="M0 0 C2.20555774 2.20555774 2.90334768 3.96340176 4.125 6.8125 C6.30979089 11.18841451 8.29069677 13.90072653 12.62109375 16.234375 C18.34482663 18.07649593 24.52174721 17.56111384 30.3125 16.25 C33.72920936 15.93216657 35.14371201 17.26032211 37.93359375 19.0703125 C42.81616413 21.26700768 49.02909795 20.65696735 54 19 C54.46597567 22.91419565 54.17752622 24.70412296 52.125 28.125 C48.62178524 31.98361335 43.83666138 33.40343217 39 35 C38.98582031 35.80824219 38.97164062 36.61648437 38.95703125 37.44921875 C38.5188928 47.26588829 38.5188928 47.26588829 35.5625 50.1875 C31.06850788 53.36617736 27.43405101 53.80504459 22 53 C17.34326242 50.06798004 15.11086658 47.04262572 13 42 C11.78763672 42.05220703 11.78763672 42.05220703 10.55078125 42.10546875 C9.48214844 42.13253906 8.41351563 42.15960938 7.3125 42.1875 C5.72888672 42.23970703 5.72888672 42.23970703 4.11328125 42.29296875 C-0.37047922 41.87103395 -2.96455702 40.24967256 -5.8125 36.8125 C-7.36889617 33.12629854 -7.96369767 29.88444293 -7 26 C-5.5555722 24.05777505 -3.96157346 22.39969507 -2.2734375 20.66796875 C-0.65832277 18.91079795 -0.65832277 18.91079795 -1.0625 15.6875 C-1.91059726 13.07242236 -1.91059726 13.07242236 -3 11 C-3.46280992 4.75206612 -3.46280992 4.75206612 -1.5 1.5625 C-1.005 1.046875 -0.51 0.53125 0 0 Z " fill="#F67180" transform="translate(75,180)"/>
<path d="M0 0 C1.625 1.25 1.625 1.25 2.625 3.25 C3.01731417 7.95777 3.09836758 10.32079697 0.9375 14.5625 C-1.33980659 17.20909955 -3.27124067 18.69812033 -6.375 20.25 C-5.71914811 23.85992379 -5.71914811 23.85992379 -4.375 27.25 C-3.85362706 32.07911 -3.64097327 35.99166846 -6.125 40.25 C-10.04229829 43.73204292 -12.88999621 44.79290432 -18.2890625 44.72265625 C-21.58956682 43.97478917 -23.40095456 41.82794832 -25.77734375 39.52734375 C-27.39206519 37.96378819 -27.39206519 37.96378819 -30.125 38.25 C-32.58268469 39.26642704 -32.58268469 39.26642704 -35.375 41.25 C-39.56114674 41.85362041 -43.30936214 41.66698873 -47.25 40.125 C-50.81786705 36.97688202 -52.21672224 33.83277761 -52.6875 29.125 C-52.37660367 26.2647538 -51.6700533 24.75916576 -50.375 22.25 C-50.20749586 19.58290931 -50.20749586 19.58290931 -50.375 17.25 C-50.99375 17.023125 -51.6125 16.79625 -52.25 16.5625 C-55.03159901 14.84445355 -55.47059541 13.34004901 -56.375 10.25 C-56.375 9.26 -56.375 8.27 -56.375 7.25 C-53.02104457 6.60353149 -49.79624473 6.11987342 -46.375 6.25 C-44.1875 8.4375 -44.1875 8.4375 -42.375 11.25 C-37.13293722 15.29075672 -32.898651 15.87995561 -26.31640625 15.6328125 C-20.37812806 14.85996886 -16.71201189 12.93885712 -13 8.25 C-11.37824052 5.43426115 -11.37824052 5.43426115 -10.5625 3 C-9.375 1.25 -9.375 1.25 -6 -0.125 C-2.375 -0.75 -2.375 -0.75 0 0 Z " fill="#F57180" transform="translate(136.375,148.75)"/>
<path d="M0 0 C3.70102065 2.06246305 6.71446337 4.90965617 8 9 C8.43682364 11.66719376 8.73072051 14.30720509 9 17 C9.66386719 17.09796875 10.32773438 17.1959375 11.01171875 17.296875 C17.23666084 18.35102578 21.45008265 19.47868557 25.3125 24.8125 C26.75994086 29.41799364 26.51609916 32.88178516 24.5 37.25 C21.38332103 40.67834687 18.44239957 41.90382348 14 43 C13.34 43 12.68 43 12 43 C11.97421875 43.72445312 11.9484375 44.44890625 11.921875 45.1953125 C11.57256894 51.14939311 11.21436769 55.434435 7 60 C3.35781349 62.10863429 0.16191328 62.50962203 -4 62 C-8.2875772 59.68470831 -11.56370423 57.24095931 -14 53 C-14.92047033 49.27883029 -15.35360341 45.82587292 -15 42 C-12.75 39.25 -12.75 39.25 -10 37 C-7.04528861 31.70189682 -6.06009168 26.95615817 -7 21 C-8.28869863 17.36763868 -9.80595697 14.15035852 -12.6015625 11.45703125 C-14 10 -14 10 -14.5625 7.0625 C-14 4 -14 4 -11.5 1.625 C-7.41328199 -0.27240479 -4.42020029 -1.03020604 0 0 Z " fill="#F57180" transform="translate(122,62)"/>
<path d="M0 0 C5.17990188 0.65776532 7.45710194 2.10184628 11.1875 5.625 C13.04045837 8.6691459 13.07453592 9.64776419 13.125 13.0625 C13.17633829 15.40945477 13.17633829 15.40945477 13.9375 17.5 C16.11572776 19.01142334 18.20796053 19.79786305 20.70703125 20.66796875 C24.25608316 21.99187078 26.27113905 24.1672781 27.9375 27.5 C28.33517092 31.63577752 28.18535009 34.00429983 26.3125 37.75 C23.13051881 41.43439927 19.96725347 43.02796431 15.25 44.125 C11.89748482 46.1183874 11.72171236 48.67691617 10.671875 52.3046875 C9.68169585 55.26469112 8.50831382 56.73715624 5.9375 58.5 C2.6875 59.25 2.6875 59.25 -0.0625 59.5 C0.185 58.51 0.185 58.51 0.4375 57.5 C1.69248539 49.97008764 1.17440944 44.88418667 -3.0625 38.5 C-3.76375 37.860625 -4.465 37.22125 -5.1875 36.5625 C-7.6872325 33.81279425 -7.83517169 31.32885166 -8.51171875 27.74609375 C-9.84562402 22.30640914 -13.43232195 18.41902529 -18.0625 15.5 C-21.35340492 14.32214924 -24.67764451 13.36757461 -28.0625 12.5 C-28.0625 10.19 -28.0625 7.88 -28.0625 5.5 C-25.7624522 4.3499761 -24.42997079 4.36620492 -21.875 4.375 C-21.070625 4.37628906 -20.26625 4.37757812 -19.4375 4.37890625 C-17.0625 4.5 -17.0625 4.5 -13.375 5.3125 C-7.61867554 5.63832969 -5.83892879 0.16401485 0 0 Z " fill="#F67180" transform="translate(199.0625,40.5)"/>
<path d="M0 0 C7.223219 -0.48970976 7.223219 -0.48970976 10.875 1.8125 C14.20053879 5.23584875 15.16495847 7.21188966 15.25 11.875 C15.493479 15.55421819 15.493479 15.55421819 17.32421875 18.625 C18.84368541 19.80231073 20.42074618 20.90419123 22 22 C24.39491178 25.71759182 24.20948186 28.55835262 23.59375 32.8125 C22.62089421 36.39670554 21.00208643 37.89215208 18 40 C16.63297468 40.29045957 15.25649668 40.538832 13.875 40.75 C11.77557059 41.05596991 11.77557059 41.05596991 10 42 C8.94759653 44.22810107 8.42768439 46.41407367 7.828125 48.80078125 C6.85629464 51.38163262 6.02560203 52.15455595 3.6875 53.5625 C-0.04830503 55.01883078 -2.0693068 55.66905416 -6 55 C-8.03131672 53.71488126 -10.03277992 52.38123963 -12 51 C-15.59435247 49.86368374 -15.59435247 49.86368374 -19 51 C-21.6723621 51.13415472 -24.32250488 51.04318541 -27 51 C-27 50.34 -27 49.68 -27 49 C-25.390625 47.95703125 -25.390625 47.95703125 -23.25 46.8125 C-18.80113553 44.16680361 -17.18913771 41.64097195 -15 37 C-14.67 36.34 -14.34 35.68 -14 35 C-14.08321516 33.2696985 -14.19094195 31.54053116 -14.3125 29.8125 C-14.35549092 25.67462372 -14.17065095 23.48522219 -11.3125 20.4375 C-10.7659375 19.89996094 -10.219375 19.36242187 -9.65625 18.80859375 C-5.00275409 13.72706402 -2.60801616 6.31414438 0 0 Z " fill="#F67180" transform="translate(169,62)"/>
<path d="M0 0 C4.15273084 2.53777996 5.70621546 3.98039483 7.0625 8.6875 C7.701875 9.780625 8.34125 10.87375 9 12 C11.93782484 12.72172844 11.93782484 12.72172844 15.3125 13 C22.6681427 13.76347631 22.6681427 13.76347631 25.8125 17.1875 C28.30815522 20.80319326 28.73040063 23.61759623 28 28 C26.62352057 30.95943078 25.38261296 32.68395889 22.8671875 34.76171875 C20.70210384 36.89165275 20.70210384 36.89165275 20.8984375 39.9453125 C21.13433594 41.51925781 21.13433594 41.51925781 21.375 43.125 C21.8359375 46.3203125 21.8359375 46.3203125 22 49 C19.66492033 51.33507967 18.89576011 51.42010272 15.6875 51.625 C13.24609375 51.5859375 13.24609375 51.5859375 11 51 C9.28061677 49.14429739 8.26397005 47.276713 7.09375 45.0390625 C5.51822492 42.1018336 3.86225558 40.69133284 1 39 C-0.47595001 38.76998182 -1.95569292 38.56363876 -3.4375 38.375 C-6.62623095 37.80671132 -7.67402043 37.43983846 -9.6328125 34.796875 C-10.58966491 33.00865902 -11.53753534 31.21560913 -12.4765625 29.41796875 C-14.85691359 25.63992432 -17.80612291 24.24769856 -22 23 C-24.3660218 22.48564743 -26.57828075 22.20180994 -29 22 C-27.59455569 19.9796738 -26.47923008 19.09526863 -24.0546875 18.61328125 C-22.03814521 18.39283487 -20.01912323 18.19539902 -18 18 C-16.39797384 16.39797384 -16.84260838 14.5251789 -16.75 12.3125 C-16.28060849 6.94142989 -14.87190376 4.6830304 -11 1 C-7.50371579 -0.7481421 -3.81498182 -0.55875996 0 0 Z " fill="#F57180" transform="translate(415,207)"/>
<path d="M0 0 C2.92906579 -0.2978711 5.14352551 -0.50159903 8 0 C11.55126387 3.03337122 12.83772657 4.86408601 13.5 9.5 C12.83426163 14.16016861 11.6068742 17.50025074 8.125 20.75 C6 22 6 22 3.421875 22.75 C2.62265625 23.1625 1.8234375 23.575 1 24 C0.2179092 26.43682325 0.2179092 26.43682325 0.125 29.25 C-0.46126451 33.38099344 -1.04593854 35.79567876 -4.125 38.6875 C-7.35095358 40.98314746 -10.06607687 41.88067048 -14.0234375 41.61328125 C-17.15035503 40.64307166 -19.02689564 38.51653042 -21.33984375 36.27734375 C-23.07192968 34.67604328 -23.07192968 34.67604328 -26.1875 35 C-28.91079084 35.88416566 -28.91079084 35.88416566 -30.9375 37.0625 C-34.11307524 38.50594329 -36.55447534 38.35643359 -40 38 C-43.70390021 35.97333762 -45.65363011 34.51955484 -48 31 C-48.85290438 26.28658106 -48.36066441 22.76140265 -46.3125 18.4375 C-44.21721966 16.2404489 -43.12764343 16.00964944 -40.0546875 15.77734375 C-37.76872697 15.84364191 -35.48336949 15.93433006 -33.19921875 16.046875 C-29.31438429 15.98995435 -27.39067246 14.97534749 -24.16015625 13 C-21.28116794 11.66723145 -18.58384998 11.46862867 -15.4375 11.125 C-9.46468653 10.34894999 -5.73431677 8.80290588 -2 4 C-1.29618366 2.68589773 -0.61929248 1.35598637 0 0 Z " fill="#F57180" transform="translate(438,319)"/>
<path d="M0 0 C2.78684665 1.31652358 5.18756615 2.8325946 7.6875 4.625 C12.17083317 7.43644084 15.8165291 7.84886109 21 7 C25.04074629 5.88773883 28.49689449 4.33540368 32 2 C33.00611289 6.10829431 33.38912489 8.98328365 31.4375 12.75 C29.19830592 16.17780738 26.86582301 17.55979143 23 19 C21.7625 19.2475 20.525 19.495 19.25 19.75 C18.1775 20.1625 17.105 20.575 16 21 C15.25881795 23.31074405 14.59793673 25.64811553 14 28 C11.33007519 31.06064552 9.75999775 32.61273753 5.81640625 33.48046875 C1.74448171 33.73453487 -1.12084955 33.36239401 -4.375 30.8125 C-6.7171613 28.30304146 -8.43574651 26.041604 -10 23 C-11.485 23.2475 -11.485 23.2475 -13 23.5 C-14.33192247 23.67758966 -15.66542522 23.84358481 -17 24 C-17.67160156 24.07992187 -18.34320313 24.15984375 -19.03515625 24.2421875 C-23.00547372 24.50228537 -25.40226437 24.09385194 -28.4375 21.625 C-31.7865291 18.19428726 -32.15329707 16.72093959 -32.1875 12.0625 C-32.20167969 11.18722656 -32.21585937 10.31195313 -32.23046875 9.41015625 C-32 7 -32 7 -30 4 C-27.76818244 4.49595946 -25.87773662 5.05938507 -23.8125 6.0625 C-16.98323258 8.33892247 -11.33952523 7.15881019 -4.9453125 4.16796875 C-2.96723739 2.98032928 -1.54874669 1.69972514 0 0 Z " fill="#F97381" transform="translate(104,124)"/>
<path d="M0 0 C1.65 0 3.3 0 5 0 C5 41.91 5 83.82 5 127 C2.69454732 124.69454732 2.40399117 123.41862912 1.59765625 120.30078125 C1.34846436 119.3461499 1.09927246 118.39151855 0.8425293 117.40795898 C0.58511963 116.38645752 0.32770996 115.36495605 0.0625 114.3125 C-0.20328857 113.269729 -0.46907715 112.22695801 -0.74291992 111.15258789 C-5.57916797 91.95441832 -7.23175443 73.61007093 -7.25 53.875 C-7.25133942 53.01449036 -7.25267883 52.15398071 -7.25405884 51.26739502 C-7.24979113 38.61230723 -6.7530158 26.39634796 -4 14 C-3.72223208 12.65503545 -3.44488058 11.30998482 -3.16796875 9.96484375 C-1.28304303 1.28304303 -1.28304303 1.28304303 0 0 Z " fill="#B2744B" transform="translate(103,241)"/>
<path d="M0 0 C3.77887808 1.86335211 4.49045413 6.1452519 5.94140625 9.875 C7.0970022 13.32441047 7.73389056 16.36008242 7.98046875 19.9765625 C10.08551665 20.95517514 10.08551665 20.95517514 12.98046875 20.9765625 C14.84143432 19.96679189 14.84143432 19.96679189 16.73046875 18.6015625 C21.03667338 15.63488336 24.8274035 15.10777481 29.98046875 14.9765625 C30.59594869 27.49132129 26.72962609 39.08737624 18.98046875 48.9765625 C16.66351695 47.8180866 14.35007362 46.6546586 12.04296875 45.4765625 C9.12105744 43.90302047 9.12105744 43.90302047 6.29296875 43.3515625 C3.43124039 41.64999429 3.46662095 40.84758685 2.60546875 37.7265625 C1.3400395 33.24004062 -0.39680525 31.20433242 -4.10546875 28.4609375 C-6.7537219 26.40719016 -8.90177117 24.60563109 -11.01953125 21.9765625 C-11.36392523 19.00087771 -11.42194842 16.82427536 -11.14453125 13.9140625 C-11.11617188 13.20701172 -11.0878125 12.49996094 -11.05859375 11.77148438 C-10.77769282 8.03199069 -10.32175849 6.27730337 -7.63671875 3.60546875 C-6.77304688 3.06792969 -5.909375 2.53039063 -5.01953125 1.9765625 C-2.01953125 -0.0234375 -2.01953125 -0.0234375 0 0 Z " fill="#029699" transform="translate(133.01953125,30.0234375)"/>
<path d="M0 0 C2.72176311 1.65285251 4.92257459 3.58858337 7 6 C7 6.33 7 6.66 7 7 C6.00419922 7.22042969 6.00419922 7.22042969 4.98828125 7.4453125 C-1.2538001 9.01202891 -1.2538001 9.01202891 -6.1875 12.9375 C-8.24891272 15.75043456 -8.24891272 15.75043456 -7.8125 18.375 C-7.544375 18.91125 -7.27625 19.4475 -7 20 C-4.71163778 20.41986946 -4.71163778 20.41986946 -2 20 C-1.21625 19.154375 -0.4325 18.30875 0.375 17.4375 C3 15 3 15 6.5625 14.9375 C10.26031044 16.08045959 11.38169963 17.29442296 14 20 C16.66834966 20.33498301 16.66834966 20.33498301 19 20 C19.41986946 17.71163778 19.41986946 17.71163778 19 15 C16.34999338 11.83471431 13.83776322 9.56353316 10 8 C10 7.34 10 6.68 10 6 C17.66806723 1.09243697 17.66806723 1.09243697 23 2 C26.77062132 4.07014504 30.005306 6.12142833 32 10 C32.39928792 14.47202465 32.01750173 17.0910904 30 21 C29.83275263 24.16695956 29.83275263 24.16695956 30 27 C28.76115681 27.72767003 27.50831659 28.43154815 26.25 29.125 C25.55390625 29.51945312 24.8578125 29.91390625 24.140625 30.3203125 C22 31 22 31 19.99609375 30.25 C19.33738281 29.8375 18.67867187 29.425 18 29 C12.00423686 25.85881625 6.83727982 23.78986198 0 25 C-3.88393105 26.32853488 -7.12260375 27.62016317 -9.37109375 31.15625 C-11 33 -11 33 -13.69921875 33.171875 C-14.68535156 33.03265625 -15.67148438 32.8934375 -16.6875 32.75 C-17.68136719 32.62109375 -18.67523438 32.4921875 -19.69921875 32.359375 C-20.45847656 32.24078125 -21.21773437 32.1221875 -22 32 C-20.39443005 28.87336377 -19.42824905 27.23902273 -16.3125 25.5 C-15.549375 25.005 -14.78625 24.51 -14 24 C-13.34674124 20.26709281 -13.85798474 19.21302289 -16 16 C-16.68343706 12.22311096 -16.85107095 8.52813111 -14.94921875 5.11328125 C-10.64693951 -0.12813859 -6.55521896 -1.17438776 0 0 Z " fill="#F57180" transform="translate(83,28)"/>
<path d="M0 0 C7.92 0 15.84 0 24 0 C24 10.56 24 21.12 24 32 C16.08 32 8.16 32 0 32 C0 21.44 0 10.88 0 0 Z " fill="#795033" transform="translate(444,68)"/>
<path d="M0 0 C1.35550385 2.7110077 1.16917207 4.91339169 1.1875 7.9375 C1.20167969 8.99839844 1.21585937 10.05929687 1.23046875 11.15234375 C1 14 1 14 -1 17 C-0.6878236 19.64632287 -0.6878236 19.64632287 0 22 C1.9490625 22.309375 1.9490625 22.309375 3.9375 22.625 C11.05194933 24.1984959 16.86659103 27.99485867 21 34 C19.62090338 37.40844088 18.39436506 38.66737535 15.0625 40.1875 C14.37285156 40.51105469 13.68320312 40.83460938 12.97265625 41.16796875 C9.3947187 42.67707904 6.66590112 43.11254417 2.8125 43.0625 C1.91144531 43.05347656 1.01039063 43.04445313 0.08203125 43.03515625 C-0.60503906 43.02355469 -1.29210937 43.01195312 -2 43 C-2.37125 41.80375 -2.7425 40.6075 -3.125 39.375 C-4.29959619 36.14907553 -5.41499252 34.41202322 -8.0625 32.25 C-11.9429726 28.78903795 -11.91085934 24.73761993 -12.5 19.78515625 C-13.12175805 16.32176963 -14.535511 14.464489 -17 12 C-17 11.34 -17 10.68 -17 10 C-17.99 9.67 -18.98 9.34 -20 9 C-14.3862033 2.68447872 -8.57598984 -0.71466582 0 0 Z " fill="#029598" transform="translate(462,253)"/>
<path d="M0 0 C8.16047799 0.1985957 14.64357196 2.57458419 22 6 C23.77640508 19.82430089 23.77640508 19.82430089 20.8125 24.3125 C19.884375 25.199375 18.95625 26.08625 18 27 C16.90254757 29.34390307 16.90254757 29.34390307 16 31.9375 C14.26336231 36.63206935 12.02120765 40.02472678 9 44 C8.29325371 45.31252882 7.60036728 46.63552891 7 48 C1.00708997 47.58669586 -2.25036599 46.68096635 -7 43 C-4.1983007 34.82245129 2.47766383 29.76116808 10 26 C9.63948879 22.84552694 9.19732851 21.23432761 7.125 18.7734375 C4.67179753 15.57164752 3.55050601 12.62169815 2.25 8.8125 C1.82203125 7.58144531 1.3940625 6.35039063 0.953125 5.08203125 C0 2 0 2 0 0 Z " fill="#029598" transform="translate(37,28)"/>
<path d="M0 0 C1.67542976 0.28604898 3.34385343 0.61781233 5 1 C5.71484375 3.26171875 5.71484375 3.26171875 6 6 C-1.01831638 16.49604927 -18.358485 22.63877718 -30.03515625 25.37109375 C-44.46257902 27.93167901 -58.27293438 25.80374513 -72 21 C-72.66 20.34 -73.32 19.68 -74 19 C-73.625 16.375 -73.625 16.375 -73 14 C-68.45942698 12.61959635 -65.07888674 13.61417869 -60.6875 14.9375 C-43.86991605 19.53101177 -27.49573703 16.99189587 -12 9 C-5.68613231 4.90462348 -5.68613231 4.90462348 0 0 Z " fill="#080908" transform="translate(366,133)"/>
<path d="M0 0 C0.350625 1.19625 0.70125 2.3925 1.0625 3.625 C3.04900414 9.00193189 6.91724142 12.45862071 12 15 C13.43683799 15.07621734 14.87453728 15.13674837 16.3125 15.1875 C19.94740016 15.53926453 21.68836922 16.12674746 24.0625 18.9375 C26 22 26 22 26 24 C24.62511713 24.02749766 23.25006609 24.0466164 21.875 24.0625 C21.05128906 24.0728125 20.22757812 24.083125 19.37890625 24.09375 C17 24 17 24 13.8125 23.0625 C10.98530698 22.67931941 10.98530698 22.67931941 9.37109375 24.45703125 C8.30610484 25.71705427 7.27913748 27.01041125 6.296875 28.3359375 C4.69299645 30.39392624 3.61792397 30.91349064 1.046875 31.2734375 C-3.24672199 31.46329043 -6.09582964 31.4342668 -9.5 28.625 C-12.58092446 25.39002932 -13.13968045 24.06605211 -13.125 19.75 C-13.12242187 18.94433594 -13.11984375 18.13867188 -13.1171875 17.30859375 C-13 15 -13 15 -12.25 11.8125 C-11.89668007 7.83765081 -13.66957604 6.10723194 -16 3 C-16 2.34 -16 1.68 -16 1 C-14.73542969 1.01740234 -14.73542969 1.01740234 -13.4453125 1.03515625 C-12.34960938 1.04417969 -11.25390625 1.05320312 -10.125 1.0625 C-8.48917969 1.07990234 -8.48917969 1.07990234 -6.8203125 1.09765625 C-4.16663968 1.00577007 -2.56044142 0 0 0 Z " fill="#F77281" transform="translate(381,304)"/>
<path d="M0 0 C0.74056641 0.00451172 1.48113281 0.00902344 2.24414062 0.01367188 C4.05862899 0.02537825 5.87307534 0.04331102 7.6875 0.0625 C8.8359375 2.33203125 8.8359375 2.33203125 9.6875 5.0625 C8.7890625 6.94921875 8.7890625 6.94921875 7.3125 8.75 C4.06803675 13.47002735 3.71780373 17.46672977 4.6875 23.0625 C6.40623877 28.06167419 9.21390856 32.09268121 12.6875 36.0625 C6.32626684 38.57659031 0.52731276 40.54628772 -6.3125 41.0625 C-6.15609516 34.92005531 -5.09380738 30.91987069 -1.37109375 25.984375 C-0.03587844 23.56029407 -0.12927579 21.78737291 -0.3125 19.0625 C-0.91835938 18.8665625 -1.52421875 18.670625 -2.1484375 18.46875 C-9.34376294 15.90057231 -14.59377906 12.07550644 -20.3125 7.0625 C-19.3125 4.0625 -19.3125 4.0625 -16.5625 2.4375 C-11.02270531 0.09374071 -5.96054422 -0.06924672 0 0 Z " fill="#029598" transform="translate(56.3125,191.9375)"/>
<path d="M0 0 C3.92645908 0.44835 6.57655561 1.75682964 9.875 3.875 C21.41367428 10.97833704 34.80509194 14.15358099 48.35546875 11.546875 C50.23853313 11.03695428 52.11936168 10.51879678 54 10 C56.36553607 9.84592294 58.62670134 9.90111256 61 10 C61.495 12.97 61.495 12.97 62 16 C60.62929219 16.65489373 59.25316556 17.29844963 57.875 17.9375 C57.10929687 18.29714844 56.34359375 18.65679687 55.5546875 19.02734375 C43.03385994 23.79444782 26.18594372 21.63813524 14.15234375 16.41796875 C8.12395369 13.58515477 3.00208742 10.37776674 -2 6 C-1.125 1.125 -1.125 1.125 0 0 Z " fill="#080807" transform="translate(286,115)"/>
<path d="M0 0 C4.20463341 0.58446149 5.818593 2.51894041 8.40625 5.6875 C16 16.70588235 16 16.70588235 16 22 C10.44691423 25.4969054 3.29392171 24.55686962 -3 24 C-6.25433735 23.02029111 -9.09801267 21.76164 -12 20 C-11.47631314 17.79866142 -10.91497658 15.79027557 -10.0625 13.6875 C-8.87075359 10.89791131 -8.87075359 10.89791131 -8.25 7.375 C-7 4 -7 4 -3.9375 2.125 C-2.968125 1.75375 -1.99875 1.3825 -1 1 C-0.67 0.67 -0.34 0.34 0 0 Z " fill="#029598" transform="translate(130,215)"/>
<path d="M0 0 C0.8125 2.1875 0.8125 2.1875 1 5 C-7.55413242 14.51492265 -18.60899068 21.20318195 -29.5 27.6875 C-30.55098877 28.32421631 -31.60197754 28.96093262 -32.68481445 29.61694336 C-33.68601318 30.20096924 -34.68721191 30.78499512 -35.71875 31.38671875 C-37.06356445 32.17888794 -37.06356445 32.17888794 -38.43554688 32.98706055 C-41.43567318 34.17208759 -42.95864477 33.92972122 -46 33 C-46.33 31.35 -46.66 29.7 -47 28 C-41.8843408 24.42715866 -36.64467773 21.20953381 -31.1875 18.1875 C-23.02699995 13.62995021 -15.52588766 8.26629335 -8.625 1.9375 C-5.50029366 -0.36883087 -3.7989499 -0.45225594 0 0 Z " fill="#070707" transform="translate(195,155)"/>
<path d="M0 0 C4.48629771 1.80213374 5.80874709 5.70148452 7.94921875 9.859375 C8.38685547 10.67148437 8.82449219 11.48359375 9.27539062 12.3203125 C14.40781032 21.94261996 16.96445026 30.81043521 14.0390625 41.83203125 C12.59610706 45.05093184 11.41483187 46.82946938 8.13671875 48.234375 C5.76171875 48.109375 5.76171875 48.109375 3.76171875 46.109375 C4.08282564 42.57719921 4.63988377 39.47487994 5.76171875 36.109375 C7.85561121 25.51039355 1.40066714 16.68618998 -3.515625 7.80078125 C-4.57031038 5.33224737 -3.98549391 3.62272668 -3.23828125 1.109375 C-2.23828125 0.109375 -2.23828125 0.109375 0 0 Z " fill="#090908" transform="translate(112.23828125,419.890625)"/>
<path d="M0 0 C2.43237305 0.16992188 2.43237305 0.16992188 5 1 C6.23364258 2.84570312 6.23364258 2.84570312 7.08203125 5.28125 C7.40252441 6.18746094 7.72301758 7.09367187 8.05322266 8.02734375 C9.68885333 13.16283603 11.24297068 18.30724756 12.6875 23.5 C12.99494141 24.56347656 13.30238281 25.62695312 13.61914062 26.72265625 C17.29513312 39.83396426 17.29513312 39.83396426 17 46 C16.34 46.66 15.68 47.32 15 48 C12.375 47.625 12.375 47.625 10 47 C7.90833164 40.9747063 6.127953 34.93130297 4.5625 28.75 C2.82331572 21.95185516 0.89485195 15.29884649 -1.3984375 8.6640625 C-2.0647116 5.71342004 -1.86446884 3.87817271 -1 1 C-0.67 0.67 -0.34 0.34 0 0 Z " fill="#090908" transform="translate(78,364)"/>
<path d="M0 0 C0.61101562 0.31453125 1.22203125 0.6290625 1.8515625 0.953125 C0.40729322 14.12399856 -2.74588198 26.17143418 -12.1484375 35.953125 C-12.4784375 35.953125 -12.8084375 35.953125 -13.1484375 35.953125 C-13.1484375 24.073125 -13.1484375 12.193125 -13.1484375 -0.046875 C-7.25021813 -2.01294812 -5.31483032 -2.58977186 0 0 Z " fill="#B2744A" transform="translate(417.1484375,365.046875)"/>
<path d="M0 0 C1.08667969 0.38091797 1.08667969 0.38091797 2.1953125 0.76953125 C2.984375 2.96875 2.984375 2.96875 3.1953125 5.76953125 C1.28125 8.1640625 1.28125 8.1640625 -1.4296875 10.58203125 C-9.24183436 17.93464006 -13.73513836 24.98498783 -14.4609375 35.78125 C-14.8046875 37.76953125 -14.8046875 37.76953125 -16.8046875 39.76953125 C-21.36024306 39.21397569 -21.36024306 39.21397569 -22.8046875 37.76953125 C-23.61395386 26.64211877 -19.8138417 18.26666232 -12.8046875 9.76953125 C-4.0425728 -0.33218913 -4.0425728 -0.33218913 0 0 Z " fill="#060606" transform="translate(402.8046875,428.23046875)"/>
<path d="M0 0 C4.55555556 0.55555556 4.55555556 0.55555556 6 2 C7.31817212 13.80705602 4.56686226 24.77987019 -2.6875 34.25 C-4.39220971 36.26087709 -6.13574379 38.13574379 -8 40 C-10.625 39.625 -10.625 39.625 -13 39 C-13.69921875 36.75390625 -13.69921875 36.75390625 -14 34 C-12.70703125 31.96484375 -12.70703125 31.96484375 -10.8125 29.9375 C-4.5527249 22.40327967 -2.63661677 13.81790671 -2.2734375 4.1796875 C-2 2 -2 2 0 0 Z " fill="#090908" transform="translate(90,420)"/>
<path d="M0 0 C4.55555556 0.55555556 4.55555556 0.55555556 6 2 C6.44310449 4.09875842 6.85372295 6.20439825 7.25 8.3125 C8.26516732 13.28732495 9.57070274 17.63862014 11.6875 22.25 C14.02062742 27.4925092 15.08184929 32.2832806 14 38 C13.34 38.66 12.68 39.32 12 40 C7.44444444 39.44444444 7.44444444 39.44444444 6 38 C5.70106521 36.15015603 5.43621973 34.29476229 5.1875 32.4375 C4.43748873 27.66675163 3.2801264 24.11481689 0.953125 19.9296875 C-1.76067722 14.43535022 -2.49374077 8.04832448 -2 2 C-1.34 1.34 -0.68 0.68 0 0 Z " fill="#070707" transform="translate(430,420)"/>
<path d="M0 0 C4.70588235 0.70588235 4.70588235 0.70588235 6 2 C6.42088925 11.05826863 2.81612273 17.69426153 -3.0703125 24.3359375 C-5.91413633 27.24272422 -8.60979406 29.73986271 -12 32 C-14.6875 31.625 -14.6875 31.625 -17 31 C-17.7890625 28.765625 -17.7890625 28.765625 -18 26 C-16.0859375 23.859375 -16.0859375 23.859375 -13.375 21.75 C-6.37488516 15.84794239 -3.1904135 9.76165401 -1 1 C-0.67 0.67 -0.34 0.34 0 0 Z " fill="#080807" transform="translate(426,396)"/>
<path d="M0 0 C3.40671644 0.18508476 4.71339235 0.70222582 7.10546875 3.1875 C7.79253906 4.115625 8.47960937 5.04375 9.1875 6 C14.31159416 12.58321645 20.03858802 18.35905868 27 23 C26.125 27.875 26.125 27.875 25 29 C22.80078125 29.37109375 22.80078125 29.37109375 20 29 C17.85106635 27.41423517 16.07543571 25.91444598 14.1875 24.0625 C13.66559082 23.56685547 13.14368164 23.07121094 12.60595703 22.56054688 C7.28841469 17.44758834 2.10092667 12.15139 -2 6 C-1.45945946 1.45945946 -1.45945946 1.45945946 0 0 Z " fill="#070707" transform="translate(257,116)"/>
<path d="M0 0 C2.625 0.375 2.625 0.375 5 1 C5.8125 3 5.8125 3 6 6 C5.05859375 7.55078125 5.05859375 7.55078125 3.75 9.3125 C0.46706092 14.0322933 -0.17890523 18.96810646 -1.01074219 24.5402832 C-1.8197724 29.8197724 -1.8197724 29.8197724 -4 32 C-8.55555556 31.44444444 -8.55555556 31.44444444 -10 30 C-11.14208735 21.06925142 -8.76651257 11.91454945 -3.875 4.375 C-2 2 -2 2 0 0 Z " fill="#090908" transform="translate(414,436)"/>
<path d="M0 0 C2.125 0.8125 2.125 0.8125 3.9375 2.875 C6.07894726 5.11876669 6.07894726 5.11876669 9.5625 5.375 C13.98757156 4.67630449 15.07442187 2.94335651 18.125 -0.1875 C20.9375 0 20.9375 0 23.125 0.8125 C23.9375 2.9375 23.9375 2.9375 24.125 5.8125 C21.56925624 9.53658376 19.33988831 12.15855648 15.125 13.8125 C9.8304601 14.50031032 5.43469305 14.46734652 0.625 12.0625 C-3.62641243 8.23622881 -3.62641243 8.23622881 -4.875 5.8125 C-4.6875 3.125 -4.6875 3.125 -3.875 0.8125 C-1.875 -0.1875 -1.875 -0.1875 0 0 Z " fill="#0B0506" transform="translate(100.875,171.1875)"/>
<path d="M0 0 C4.26086038 5.11303245 4.12502251 9.87442602 3.875 16.25 C-1.94241102 16.10187148 -6.71961907 15.21760451 -11.59765625 11.9140625 C-13.99544564 9.30163723 -14.04867239 6.78256845 -14.08984375 3.3359375 C-14.02392737 1.05289108 -14.02392737 1.05289108 -15.125 -1.75 C-13.70956585 -1.94658808 -12.29255969 -2.13187546 -10.875 -2.3125 C-10.08609375 -2.41691406 -9.2971875 -2.52132812 -8.484375 -2.62890625 C-4.84471175 -2.81571016 -2.821294 -2.32341859 0 0 Z " fill="#029193" transform="translate(157.125,122.75)"/>
<path d="M0 0 C1.21875 1.71484375 1.21875 1.71484375 2.5 3.9375 C4.18454879 7.05432026 4.18454879 7.05432026 7 9 C7.4140625 11.50390625 7.4140625 11.50390625 7.625 14.5625 C7.69976562 15.57441406 7.77453125 16.58632812 7.8515625 17.62890625 C7.92503906 18.80259766 7.92503906 18.80259766 8 20 C1.53610869 20.36435295 -5.2885712 20.48670368 -11 17 C-11.9140625 15.171875 -11.9140625 15.171875 -12 13 C-9.92306289 8.71018082 -5.23074838 0 0 0 Z " fill="#029497" transform="translate(65,143)"/>
<path d="M0 0 C0.66 0.66 1.32 1.32 2 2 C1.625 4.625 1.625 4.625 1 7 C0.40832031 7.14695312 -0.18335937 7.29390625 -0.79296875 7.4453125 C-6.7555481 9.13779016 -9.65465191 10.7285424 -13 16 C-13.89306246 18.3407637 -14.45897603 20.54080012 -15 23 C-17.375 23.625 -17.375 23.625 -20 24 C-22 22 -22 22 -22.375 18.875 C-21.83000601 13.24339542 -20.25871494 9.0996505 -16.05859375 5.1953125 C-10.69039819 1.0628894 -6.92285 -0.37761 0 0 Z " fill="#0A0405" transform="translate(82,72)"/>
<path d="M0 0 C2.4375 0.0625 2.4375 0.0625 5 1 C7.3674887 3.77567641 7.95971731 5.69500251 8.4375 9.3125 C7.74283734 15.16751385 5.71460783 19.36903157 1.4375 23.4375 C-2.75524469 26.12515685 -6.10476054 26.18130517 -11 26 C-12 25 -12 25 -12.1875 22.5625 C-12 20 -12 20 -10 18 C-8.2675 17.5359375 -8.2675 17.5359375 -6.5 17.0625 C-2.76314255 16.3326766 -2.76314255 16.3326766 -1 13 C-1.05120045 10.31209422 -1.05120045 10.31209422 -1.5 7.4375 C-1.90625 4.49609375 -1.90625 4.49609375 -2 2 C-1.34 1.34 -0.68 0.68 0 0 Z " fill="#090404" transform="translate(129,85)"/>
<path d="M0 0 C3.01645852 0.10054862 4.04368052 1.04125382 6.25 3.125 C8.46146362 6.75811881 8.52416499 8.80668008 8 13 C6.48007896 16.18459646 4.71704041 18.73579966 2 21 C-1.61930698 22.20643566 -4.19231005 22.32268559 -8 22 C-11.4375 20 -11.4375 20 -14 18 C-13.125 13.125 -13.125 13.125 -12 12 C-8.51119051 11.80617725 -5.39830361 12.22324489 -2 13 C-1.61781233 11.34385343 -1.28604898 9.67542976 -1 8 C-1.33 7.67 -1.66 7.34 -2 7 C-2.1875 4.5625 -2.1875 4.5625 -2 2 C-1.34 1.34 -0.68 0.68 0 0 Z " fill="#0A0405" transform="translate(84,86)"/>
<path d="M0 0 C4.66045827 1.97988 8.09035329 5.28204931 10 10 C10.3125 13.6875 10.3125 13.6875 10 17 C9.34 17.66 8.68 18.32 8 19 C5.375 18.625 5.375 18.625 3 18 C1.515 13.545 1.515 13.545 0 9 C-1.60681641 9.01740234 -1.60681641 9.01740234 -3.24609375 9.03515625 C-4.64322743 9.04453299 -6.04036299 9.05363331 -7.4375 9.0625 C-8.14455078 9.07087891 -8.85160156 9.07925781 -9.58007812 9.08789062 C-11.38693559 9.09653588 -13.19387603 9.05220011 -15 9 C-16 8 -16 8 -16.3125 5.625 C-16 3 -16 3 -14.34375 1.3671875 C-9.90374534 -1.22281522 -4.96287338 -0.69506211 0 0 Z " fill="#090404" transform="translate(420,218)"/>
<path d="M0 0 C2.5625 0.1875 2.5625 0.1875 4.5625 2.1875 C5.5625 4.6875 5.5625 4.6875 6.5625 7.1875 C8.44625675 9.51233785 8.44625675 9.51233785 11.5625 9.375 C14.48636603 9.38829609 14.48636603 9.38829609 16.5625 8.1875 C18.56210012 8.147508 20.56297242 8.14403201 22.5625 8.1875 C23.25 10.5 23.25 10.5 23.5625 13.1875 C21.58669851 16.15120223 18.91485779 17.21904108 15.5625 18.1875 C9.62955095 18.86833022 6.17750406 18.10427591 1.26171875 14.67578125 C-2.29043324 11.56458606 -3.33966064 8.48387153 -3.6875 3.875 C-3.35101351 0.25777027 -3.35101351 0.25777027 0 0 Z " fill="#080304" transform="translate(84.4375,204.8125)"/>
<path d="M0 0 C4.55555556 0.55555556 4.55555556 0.55555556 6 2 C6.67623162 5.51572521 7.0889705 9.07692732 7.5625 12.625 C7.77036133 14.10419922 7.77036133 14.10419922 7.98242188 15.61328125 C8.68422495 20.79210393 9.16833091 25.77442294 9 31 C7.02 31.33 5.04 31.66 3 32 C-1.47445604 23.25447228 -3.34818537 11.7743439 -2 2 C-1.34 1.34 -0.68 0.68 0 0 Z " fill="#0A0A09" transform="translate(70,324)"/>
<path d="M0 0 C4.70588235 0.70588235 4.70588235 0.70588235 6 2 C5.5132186 9.18002569 4.13116945 14.29444749 -1.375 19.25 C-6.07811064 23.01643242 -9.87972582 24.54402437 -16 24 C-16.66 23.34 -17.32 22.68 -18 22 C-17.92578125 19.49609375 -17.92578125 19.49609375 -17 17 C-14.85546875 15.84765625 -14.85546875 15.84765625 -12.1875 15.0625 C-7.33099593 13.3374365 -5.29611812 11.78357942 -3 7 C-2.28856912 5.01548229 -1.61008664 3.01797888 -1 1 C-0.67 0.67 -0.34 0.34 0 0 Z " fill="#080304" transform="translate(430,292)"/>
<path d="M0 0 C1.0828125 0.37125 1.0828125 0.37125 2.1875 0.75 C2.921875 2.984375 2.921875 2.984375 3.1875 5.75 C0.75255487 9.26144719 -2.61958146 11.9289839 -5.8125 14.75 C-7.235625 16.04550781 -7.235625 16.04550781 -8.6875 17.3671875 C-14.19605557 22.17220472 -14.19605557 22.17220472 -16.8125 23.75 C-19.640625 23.4921875 -19.640625 23.4921875 -21.8125 22.75 C-22.7578125 20.69140625 -22.7578125 20.69140625 -22.8125 17.75 C-20.77764472 15.0317978 -18.24548671 12.90457855 -15.6875 10.6875 C-15.00945312 10.07583984 -14.33140625 9.46417969 -13.6328125 8.83398438 C-11.71345602 7.11363094 -9.76965132 5.42710919 -7.8125 3.75 C-6.88308594 2.94175781 -5.95367187 2.13351563 -4.99609375 1.30078125 C-2.8125 -0.25 -2.8125 -0.25 0 0 Z " fill="#0C0C0B" transform="translate(196.8125,124.25)"/>
<path d="M0 0 C0.66 0 1.32 0 2 0 C2.14695312 1.30324219 2.14695312 1.30324219 2.296875 2.6328125 C3.37849844 11.56696285 3.37849844 11.56696285 8 19 C8.66 19.33 9.32 19.66 10 20 C10 20.66 10 21.32 10 22 C5.48184719 22.88277755 1.22487306 23.10589503 -3.375 23.0625 C-5.24285156 23.04896484 -5.24285156 23.04896484 -7.1484375 23.03515625 C-8.55996094 23.01775391 -8.55996094 23.01775391 -10 23 C-10.13106139 14.36867149 -7.12172769 8.81319895 -2 2 C-1.34 1.34 -0.68 0.68 0 0 Z " fill="#029194" transform="translate(358,319)"/>
<path d="M0 0 C4.55555556 0.55555556 4.55555556 0.55555556 6 2 C6.81088506 8.81941042 6.03135261 14.36393422 2 20 C-1.50328443 23.32812021 -4.79594656 25.84622883 -9.6875 26.1875 C-12 26 -12 26 -13 25 C-13.04080783 23.00041636 -13.04254356 20.99954746 -13 19 C-12.44570312 18.75765625 -11.89140625 18.5153125 -11.3203125 18.265625 C-10.59585938 17.93046875 -9.87140625 17.5953125 -9.125 17.25 C-8.04605469 16.76273438 -8.04605469 16.76273438 -6.9453125 16.265625 C-4.58389213 14.72927921 -3.94817699 13.63382496 -3 11 C-2.65021878 8.67077506 -2.49984461 6.37266137 -2.34375 4.0234375 C-2 2 -2 2 0 0 Z " fill="#090404" transform="translate(177,76)"/>
<path d="M0 0 C2.8125 0.1875 2.8125 0.1875 5 1 C5.8125 3.125 5.8125 3.125 6 6 C2.79071892 11.01450168 -0.20422473 13.20131112 -6 15 C-11.54545621 15.80661181 -14.94732177 14.5079405 -19.45703125 11.4375 C-21 10 -21 10 -21.625 7.3125 C-21 5 -21 5 -19 3 C-15.70285207 3.32971479 -14.3773161 3.6226839 -12 6 C-7.51140285 5.91530949 -5.5957593 5.5957593 -2.375 2.375 C-1.59125 1.59125 -0.8075 0.8075 0 0 Z " fill="#0B0505" transform="translate(430,336)"/>
<path d="M0 0 C5.11632558 0.05301892 7.9151891 0.79541455 11.8125 4.3125 C16.1412239 9.22618659 17.05173703 11.73348162 16.8125 18.3125 C15.8125 19.3125 15.8125 19.3125 12.75 19.375 C11.780625 19.354375 10.81125 19.33375 9.8125 19.3125 C9.54695313 18.67441406 9.28140625 18.03632812 9.0078125 17.37890625 C8.65460938 16.55261719 8.30140625 15.72632812 7.9375 14.875 C7.58945313 14.05128906 7.24140625 13.22757813 6.8828125 12.37890625 C5.9880063 10.15503285 5.9880063 10.15503285 3.8125 9.3125 C1.51325503 9.04225292 -0.78551487 8.86752159 -3.09375 8.69140625 C-5.1875 8.3125 -5.1875 8.3125 -7.1875 6.3125 C-6.48954584 0.58927591 -5.60901418 0.14382088 0 0 Z " fill="#080404" transform="translate(193.1875,49.6875)"/>
<path d="M0 0 C0.33 1.98 0.66 3.96 1 6 C0.175 6.474375 -0.65 6.94875 -1.5 7.4375 C-4.28828774 10.29549493 -4.3825428 10.83295316 -4.4375 14.625 C-4.36323777 18.25583275 -4.36323777 18.25583275 -2 21 C-2.375 23.625 -2.375 23.625 -3 26 C-4.65 26.33 -6.3 26.66 -8 27 C-12.60339735 21.35712582 -13.45202217 18.33998183 -13.42578125 11.0625 C-12.78309618 6.43988442 -10.57552792 3.86227494 -7 1 C-4.53721199 -0.231394 -2.7204945 -0.07159196 0 0 Z " fill="#080404" transform="translate(380,252)"/>
<path d="M0 0 C2.97 0.495 2.97 0.495 6 1 C6.57616097 4.18141059 6.49743132 6.25742573 4.67431641 8.97900391 C2.7918326 11.17032867 0.83252178 13.24738006 -1.1875 15.3125 C-1.86103516 16.04017578 -2.53457031 16.76785156 -3.22851562 17.51757812 C-9.10105866 23.66512805 -9.10105866 23.66512805 -14 24 C-14.66 23.34 -15.32 22.68 -16 22 C-15.98153494 16.76515612 -12.56535066 13.93827836 -9.125 10.4375 C-8.04266264 9.31274324 -6.96188898 8.18647932 -5.8828125 7.05859375 C-5.37911133 6.53378418 -4.87541016 6.00897461 -4.35644531 5.46826172 C-2.76115575 3.74146701 -1.34683583 1.92606942 0 0 Z " fill="#0A0A09" transform="translate(220,124)"/>
<path d="M0 0 C6.57315478 -0.36517527 11.79485526 0.86380263 18 3 C17 6 17 6 14.75 8.0625 C10.98256264 11.62124549 9.1212498 16.35130364 7 21 C6.01 21 5.02 21 4 21 C0.93540281 13.8036691 -0.61187085 7.83534611 0 0 Z " fill="#029396" transform="translate(365,216)"/>
<path d="M0 0 C4.43998427 1.36912407 6.36329922 3.24981719 9.125 6.9375 C11.74938795 10.45119904 11.74938795 10.45119904 14.72265625 13.65625 C16 15 16 15 16.3125 17.5625 C16 20 16 20 14 22 C10.3890069 21.93951435 9.1797881 21.18067086 6.61328125 18.6015625 C5.47439453 17.12816406 5.47439453 17.12816406 4.3125 15.625 C3.54550781 14.64789063 2.77851563 13.67078125 1.98828125 12.6640625 C-2.02823978 7.28239778 -2.02823978 7.28239778 -1.6875 3.875 C-1 1 -1 1 0 0 Z " fill="#0A0A09" transform="translate(366,166)"/>
<path d="M0 0 C0.33266291 6.20970773 -0.54970669 10.28264895 -3 16 C-7.66839378 15.55958549 -7.66839378 15.55958549 -10 14 C-11.56261629 10.43831253 -12.32910721 6.82089416 -13 3 C-8.51925805 -0.36055646 -5.39449293 -0.27429625 0 0 Z " fill="#029497" transform="translate(230,39)"/>
<path d="M0 0 C3.39366878 5.37330889 3.32712342 9.86946489 3 16 C-5.57142857 16.28571429 -5.57142857 16.28571429 -9 14 C-8.68554487 11.66404762 -8.3496418 9.33094534 -8 7 C-7.87625 5.88625 -7.87625 5.88625 -7.75 4.75 C-6.40435802 1.61016872 -3.35146539 0 0 0 Z " fill="#029496" transform="translate(453,345)"/>
<path d="M0 0 C0.66 3.96 1.32 7.92 2 12 C-3.61 12 -9.22 12 -15 12 C-11.78571429 2.89285714 -11.78571429 2.89285714 -6.9375 0.375 C-3.86064001 -1.00692944 -3.35057706 -1.11685902 0 0 Z " fill="#754D31" transform="translate(230,88)"/>
<path d="M0 0 C3 2.375 3 2.375 5 5 C5 5.66 5 6.32 5 7 C-0.94 7 -6.88 7 -13 7 C-10.3169832 0.29245801 -7.04812049 -1.38494196 0 0 Z " fill="#DBE6CF" transform="translate(350,53)"/>
<path d="M0 0 C2.5999945 2.5999945 3.25206552 4.39631567 4 8 C3.28347061 10.57228896 2.24355794 12.60854242 1 15 C0.67 15 0.34 15 0 15 C0 10.05 0 5.1 0 0 Z " fill="#6F492E" transform="translate(44,85)"/>
</svg>
